<svg version="1.1" xmlns="http://www.w3.org/2000/svg" viewBox="0 0 348.77713746032214 181.47385456495" width="348.77713746032214" height="181.47385456495">
  <!-- svg-source:excalidraw -->
  
  <defs>
    <style class="style-fonts">
      
    </style>
    
  </defs>
  <g stroke-linecap="round" transform="translate(12.462687438210764 91.97329836865083) rotate(0 119.77391791668168 39.75027809814958)"><path d="M2.81 7.74 C2.81 7.74, 2.81 7.74, 2.81 7.74 M2.81 7.74 C2.81 7.74, 2.81 7.74, 2.81 7.74 M0.98 22.05 C8.17 12.8, 12.49 6.47, 20 0.16 M0.98 22.05 C7.81 14.66, 14.67 5.72, 20 0.16 M1.11 34.09 C10.55 21.9, 21.8 10.97, 30.63 0.13 M1.11 34.09 C8.64 26.15, 13.73 19.39, 30.63 0.13 M1.24 46.13 C16.65 31.02, 30.37 12.35, 41.26 0.09 M1.24 46.13 C12.6 33.45, 25.54 18, 41.26 0.09 M1.38 58.17 C17.72 39.63, 32.42 21.93, 51.89 0.06 M1.38 58.17 C16.55 42.12, 28.84 25.91, 51.89 0.06 M2.17 69.46 C18.48 50.84, 33.36 29.87, 62.52 0.02 M2.17 69.46 C14.76 55.33, 28.09 40.54, 62.52 0.02 M7.55 75.46 C21.66 60.13, 36.52 45.78, 73.15 -0.01 M7.55 75.46 C29.01 51.99, 50.41 26.88, 73.15 -0.01 M14.9 79.2 C28.95 61.99, 40.68 46.21, 83.78 -0.04 M14.9 79.2 C32.45 59.46, 50.61 38.38, 83.78 -0.04 M25.53 79.17 C48.55 49.96, 73.08 22.93, 94.41 -0.08 M25.53 79.17 C44.08 57.01, 62.97 35.8, 94.41 -0.08 M35.5 79.89 C62.1 48.01, 86.67 19.16, 105.04 -0.11 M35.5 79.89 C57.85 52.66, 80.55 26.84, 105.04 -0.11 M46.13 79.85 C62.14 64.83, 75.66 45.32, 115.67 -0.15 M46.13 79.85 C63.21 58.91, 81.29 38.55, 115.67 -0.15 M56.76 79.82 C78.72 52.04, 105.08 24.92, 126.3 -0.18 M56.76 79.82 C74.29 58.98, 93.35 38.59, 126.3 -0.18 M67.39 79.78 C91.71 51.24, 115.66 25.34, 136.93 -0.22 M67.39 79.78 C86.39 57.33, 105.36 36.05, 136.93 -0.22 M78.02 79.75 C99.88 51.22, 123.04 25.45, 146.91 0.5 M78.02 79.75 C94.71 61.06, 113.27 40.32, 146.91 0.5 M88.65 79.71 C104.92 59.85, 123.86 40.97, 157.54 0.47 M88.65 79.71 C112.83 52.23, 135.44 24.24, 157.54 0.47 M99.28 79.68 C122.1 54.51, 141.46 27.18, 168.17 0.43 M99.28 79.68 C113.07 62.28, 126.95 46.77, 168.17 0.43 M109.91 79.64 C131.89 57.42, 152.04 31.22, 178.8 0.4 M109.91 79.64 C132.03 53.78, 156.47 26.4, 178.8 0.4 M120.54 79.61 C146.46 50.46, 170.74 22.23, 189.43 0.37 M120.54 79.61 C147.48 48.84, 175.13 18.04, 189.43 0.37 M131.17 79.58 C145.81 63.35, 159.62 45.42, 200.06 0.33 M131.17 79.58 C155.33 51.81, 180.28 24.05, 200.06 0.33 M141.8 79.54 C159.16 61.91, 176.53 41.74, 210.69 0.3 M141.8 79.54 C155.92 62.44, 170.41 46.68, 210.69 0.3 M152.43 79.51 C176.12 53.17, 198.46 26.49, 221.32 0.26 M152.43 79.51 C175.9 51.34, 198.72 25.33, 221.32 0.26 M163.06 79.47 C180.3 61.87, 195.03 41.25, 229.98 2.49 M163.06 79.47 C189.48 48.09, 215.09 18.18, 229.98 2.49 M173.69 79.44 C192.47 58.71, 210.31 40.41, 236.02 7.74 M173.69 79.44 C190.84 59.3, 209.49 38.22, 236.02 7.74 M184.32 79.4 C203.61 53.69, 226.81 31.35, 239.43 16.01 M184.32 79.4 C196.67 64.33, 211.08 48.48, 239.43 16.01 M194.95 79.37 C212.99 58.91, 229.17 40.45, 239.56 28.05 M194.95 79.37 C205.31 67.83, 214.24 55.34, 239.56 28.05 M205.58 79.33 C216.61 66.7, 226.72 54.22, 239.7 40.09 M205.58 79.33 C217.6 65.04, 231.12 50.43, 239.7 40.09 M216.21 79.3 C220.85 72.9, 228.86 67.17, 239.83 52.13 M216.21 79.3 C221.53 72.32, 226.03 67.6, 239.83 52.13 M228.15 77.76 C232.77 75.06, 234.85 69.11, 239.31 64.93 M228.15 77.76 C232.39 72.73, 236.63 69.3, 239.31 64.93 M2.66 71.62 C2.66 71.62, 2.66 71.62, 2.66 71.62 M2.66 71.62 C2.66 71.62, 2.66 71.62, 2.66 71.62 M23.01 78.71 C14.14 70.36, 3.75 62.83, 0.37 59.03 M23.01 78.71 C15.78 72.98, 8.27 65.58, 0.37 59.03 M35.8 79.23 C25.74 68.88, 16.56 60.28, 0.33 48.39 M35.8 79.23 C26.17 69.61, 14.19 60.27, 0.33 48.39 M47.84 79.1 C37.71 67.97, 23.72 61.29, 0.3 37.76 M47.84 79.1 C34.33 67.8, 22.22 57.61, 0.3 37.76 M59.88 78.96 C38.33 57.99, 15.57 39.64, 0.26 27.13 M59.88 78.96 C41.77 64.28, 24.02 47.8, 0.26 27.13 M71.93 78.83 C51.47 61.09, 29.49 42.95, 0.23 16.5 M71.93 78.83 C51.26 59.16, 27.86 39.32, 0.23 16.5 M83.97 78.7 C57.41 57.16, 36.49 37.57, 3.21 8.5 M83.97 78.7 C57.99 57.01, 33.3 35.2, 3.21 8.5 M96.76 79.22 C77.02 61.97, 52.61 41.18, 8.46 2.46 M96.76 79.22 C67.65 53.38, 38.84 28.57, 8.46 2.46 M108.8 79.09 C83.95 56.91, 55.12 31.8, 18.24 0.36 M108.8 79.09 C74.25 48.53, 39.38 16.43, 18.24 0.36 M120.84 78.95 C100.5 58.41, 75.34 38.22, 29.52 -0.43 M120.84 78.95 C92.86 54.85, 67.2 31.79, 29.52 -0.43 M132.88 78.82 C107.6 56.62, 77.96 33.29, 41.56 -0.56 M132.88 78.82 C95.75 47.79, 60.46 14.9, 41.56 -0.56 M144.93 78.69 C117.89 54.66, 94.59 32.65, 53.61 -0.7 M144.93 78.69 C114.37 53.83, 85.33 27.68, 53.61 -0.7 M157.72 79.21 C125.72 48.78, 92.48 21.1, 66.4 -0.17 M157.72 79.21 C136.68 61.02, 116.01 43.94, 66.4 -0.17 M169.76 79.08 C134.2 50.56, 101.28 19.77, 78.44 -0.31 M169.76 79.08 C147.69 60.86, 125.43 41.24, 78.44 -0.31 M181.8 78.94 C152.41 50.87, 122.89 27.85, 90.48 -0.44 M181.8 78.94 C147.97 50.55, 115.77 21.49, 90.48 -0.44 M193.84 78.81 C156.77 48.87, 121.94 17.08, 102.52 -0.57 M193.84 78.81 C162.38 52.07, 131.17 24.47, 102.52 -0.57 M206.64 79.33 C178.59 53.29, 145.08 26.01, 114.56 -0.71 M206.64 79.33 C179.01 55.17, 149.38 29.57, 114.56 -0.71 M218.68 79.2 C200.76 62.22, 181.22 46.71, 127.36 -0.18 M218.68 79.2 C193.59 56.1, 167.88 33.68, 127.36 -0.18 M228.46 77.1 C200.93 57.2, 176.02 34.84, 139.4 -0.32 M228.46 77.1 C194.6 47.45, 160.87 18.38, 139.4 -0.32 M235.21 72.37 C202.09 46.28, 170.88 15.53, 151.44 -0.45 M235.21 72.37 C203.44 43.91, 172.95 16.67, 151.44 -0.45 M238.95 65.02 C223.85 47.64, 205.1 35.91, 163.48 -0.58 M238.95 65.02 C216.14 46.03, 195.48 25.77, 163.48 -0.58 M239.67 55.05 C218.32 36.52, 197.18 21.54, 175.52 -0.71 M239.67 55.05 C221.1 37.98, 203.41 21.6, 175.52 -0.71 M239.64 44.42 C222.24 30.08, 205.26 13.4, 188.32 -0.19 M239.64 44.42 C220.97 28.4, 202.15 11.2, 188.32 -0.19 M239.6 33.79 C231.19 26.43, 222.28 19.25, 200.36 -0.33 M239.6 33.79 C225.21 19.95, 209.12 8.9, 200.36 -0.33 M239.57 23.16 C228.76 15.88, 221.46 8.03, 212.4 -0.46 M239.57 23.16 C229.37 14.88, 221.31 6.04, 212.4 -0.46 M237.27 10.56 C232.05 8.06, 227.19 4.37, 225.2 0.06 M237.27 10.56 C234.03 6.92, 229.4 4.15, 225.2 0.06" stroke="#1e1e1e" stroke-width="1" fill="none"></path><path d="M19.88 0 C87.15 -0.75, 152.76 1.44, 219.67 0 M19.88 0 C69.03 -2.16, 118.65 -0.86, 219.67 0 M219.67 0 C234.11 -1.64, 240.81 6.84, 239.55 19.88 M219.67 0 C231.22 -0.65, 238.12 8.34, 239.55 19.88 M239.55 19.88 C239.1 28.44, 240.22 37.92, 239.55 59.63 M239.55 19.88 C239.68 28.51, 240.25 36.83, 239.55 59.63 M239.55 59.63 C239.07 71.28, 233.31 77.51, 219.67 79.5 M239.55 59.63 C237.76 71.9, 230.82 78.41, 219.67 79.5 M219.67 79.5 C151.24 78.47, 83.99 78.89, 19.88 79.5 M219.67 79.5 C147.93 78.81, 77.09 78.66, 19.88 79.5 M19.88 79.5 C5.41 80.77, -1.3 71.22, 0 59.63 M19.88 79.5 C4.55 78.98, -0.21 73.44, 0 59.63 M0 59.63 C-2.11 45.04, -1.13 30.52, 0 19.88 M0 59.63 C0.05 48.16, -0.81 36.82, 0 19.88 M0 19.88 C0.26 4.69, 8.05 -0.68, 19.88 0 M0 19.88 C0.11 5.01, 6.9 0.55, 19.88 0" stroke="#1e1e1e" stroke-width="2" fill="none"></path></g><g stroke-linecap="round" transform="translate(10.000000000000114 13.33931383859067) rotate(0 147.90735743760132 62.240534481963095)"><path d="M199.25 3.23 C215.77 4.91, 231.42 11.45, 244.79 16.4 C258.15 21.35, 271.03 26.45, 279.45 32.93 C287.87 39.42, 293.3 47.69, 295.32 55.31 C297.35 62.93, 296.37 71.48, 291.57 78.64 C286.78 85.79, 277.22 92.12, 266.55 98.21 C255.88 104.31, 242.28 110.88, 227.54 115.18 C212.81 119.49, 195.5 122.55, 178.13 124.05 C160.76 125.55, 140.94 125.67, 123.31 124.19 C105.69 122.71, 87.64 119.2, 72.38 115.16 C57.11 111.12, 42.83 105.82, 31.72 99.94 C20.62 94.07, 11.05 86.94, 5.75 79.93 C0.46 72.91, -1.46 65.41, -0.06 57.86 C1.34 50.32, 6.42 41.62, 14.18 34.68 C21.93 27.74, 33.33 21.32, 46.49 16.22 C59.64 11.12, 76.7 6.71, 93.09 4.07 C109.47 1.43, 125.37 0.31, 144.79 0.39 C164.21 0.48, 197.53 3.16, 209.6 4.59 C221.67 6.01, 218.22 7.85, 217.22 8.95 M123.43 -0.53 C139.98 -2.42, 162.29 -0.28, 179.59 1.5 C196.89 3.29, 212.28 6.25, 227.21 10.19 C242.14 14.13, 258.38 19.19, 269.17 25.14 C279.96 31.1, 287.62 38.61, 291.94 45.91 C296.26 53.21, 297.33 61.48, 295.08 68.93 C292.84 76.39, 286.97 83.69, 278.49 90.64 C270.01 97.59, 257.63 105.79, 244.2 110.63 C230.76 115.48, 214.57 117.49, 197.87 119.74 C181.18 121.98, 161.52 123.87, 144.02 124.09 C126.52 124.31, 109.17 123.74, 92.86 121.07 C76.56 118.4, 59.47 113.55, 46.18 108.06 C32.88 102.57, 20.94 95.05, 13.08 88.11 C5.23 81.16, 0.05 73.81, -0.98 66.39 C-2.01 58.98, 1.29 50.64, 6.91 43.63 C12.52 36.63, 21.65 30.43, 32.72 24.37 C43.79 18.31, 58.33 11.42, 73.35 7.29 C88.37 3.17, 114.39 0.46, 122.86 -0.4 C131.33 -1.27, 123.5 0.68, 124.17 2.12" stroke="none" stroke-width="0" fill="#1e1e1e"></path><path d="M182.63 1.6 C199.63 2.48, 216.32 6.89, 231 11.24 C245.69 15.58, 260.72 21.44, 270.73 27.68 C280.74 33.91, 287.12 41.57, 291.08 48.64 C295.04 55.71, 296.87 62.9, 294.5 70.12 C292.12 77.33, 285.38 85.39, 276.82 91.92 C268.26 98.45, 256.72 104.54, 243.11 109.31 C229.5 114.07, 212.24 118.02, 195.18 120.53 C178.12 123.04, 158.54 124.54, 140.75 124.38 C122.95 124.22, 104.79 122.64, 88.4 119.56 C72.01 116.49, 55.21 111.26, 42.41 105.94 C29.62 100.61, 18.62 94.29, 11.61 87.62 C4.6 80.95, 0.99 73.49, 0.34 65.92 C-0.3 58.35, 2.25 49.41, 7.75 42.2 C13.25 34.99, 22.14 28.51, 33.35 22.66 C44.55 16.81, 59.35 10.91, 74.98 7.08 C90.6 3.25, 108.56 0.44, 127.09 -0.32 C145.62 -1.08, 175.63 1.97, 186.17 2.54 C196.71 3.11, 191.01 2.12, 190.34 3.11 M105.7 1.28 C121.07 -1.56, 141.94 0.61, 159.83 1.65 C177.72 2.69, 197.08 4.3, 213.03 7.51 C228.97 10.72, 243.61 15.8, 255.5 20.89 C267.4 25.98, 277.93 31.3, 284.42 38.05 C290.91 44.81, 294.18 53.65, 294.46 61.41 C294.74 69.17, 292.07 77.4, 286.11 84.63 C280.15 91.85, 270.56 99.47, 258.69 104.76 C246.81 110.04, 230.99 113.22, 214.89 116.34 C198.79 119.47, 180.01 122.58, 162.09 123.51 C144.17 124.45, 124.16 124.08, 107.34 121.94 C90.52 119.81, 75.16 115.21, 61.18 110.71 C47.19 106.21, 33.28 101.16, 23.43 94.95 C13.59 88.73, 5.6 80.92, 2.11 73.4 C-1.38 65.88, -0.92 57.18, 2.5 49.84 C5.92 42.51, 13.38 35.73, 22.61 29.39 C31.84 23.05, 43.93 16.24, 57.91 11.82 C71.89 7.4, 98.43 3.98, 106.48 2.87 C114.53 1.77, 105.55 4.24, 106.2 5.19" stroke="transparent" stroke-width="2" fill="none"></path></g><g stroke-linecap="round" transform="translate(215.5467763244833 10) rotate(0 61.61518056791948 65.97724355613673)"><path d="M90.18 6.69 C98.8 9.99, 106.37 18.39, 111.79 26.87 C117.2 35.35, 121.33 47.46, 122.66 57.57 C123.99 67.69, 123.05 77.98, 119.76 87.58 C116.47 97.18, 109.91 108.17, 102.92 115.19 C95.94 122.22, 86.93 127.14, 77.85 129.73 C68.77 132.31, 57.98 132.91, 48.44 130.68 C38.9 128.45, 28.03 123.19, 20.63 116.35 C13.23 109.52, 7.51 99.19, 4.03 89.67 C0.54 80.15, -1.37 69.21, -0.29 59.24 C0.79 49.27, 5.13 38.28, 10.52 29.84 C15.91 21.39, 23.75 13.68, 32.06 8.55 C40.38 3.42, 49.82 -1.09, 60.39 -0.94 C70.97 -0.8, 89.05 6.76, 95.52 9.43 C101.99 12.1, 99.9 14.16, 99.22 15.09 M40.91 5.7 C49.2 1.4, 59.55 0.39, 68.63 1.64 C77.7 2.89, 87.64 7.47, 95.37 13.21 C103.09 18.96, 110.14 27.53, 114.96 36.11 C119.79 44.69, 124.29 54.38, 124.32 64.71 C124.35 75.04, 120.02 88.98, 115.15 98.11 C110.27 107.25, 102.76 113.77, 95.06 119.53 C87.36 125.28, 78.01 131.12, 68.92 132.66 C59.83 134.19, 49.19 132.53, 40.51 128.73 C31.83 124.93, 23.54 117.71, 16.84 109.85 C10.13 101.99, 2.74 91.43, 0.27 81.58 C-2.2 71.74, -0.28 60.56, 2.03 50.79 C4.35 41.02, 7.96 30.53, 14.17 22.94 C20.38 15.35, 34.79 8.09, 39.29 5.25 C43.79 2.42, 40.84 4.83, 41.16 5.94" stroke="none" stroke-width="0" fill="#1e1e1e"></path><path d="M51.16 1.48 C59.85 -1.19, 70.96 0.52, 79.81 3.55 C88.66 6.58, 97.62 12.5, 104.24 19.65 C110.86 26.81, 116.59 36.93, 119.55 46.49 C122.52 56.06, 123.44 67.17, 122.04 77.07 C120.64 86.97, 117.02 97.66, 111.15 105.89 C105.27 114.12, 95.67 122.01, 86.79 126.46 C77.92 130.92, 67.31 133.13, 57.91 132.6 C48.52 132.07, 38.6 128.58, 30.44 123.27 C22.28 117.96, 13.96 109.63, 8.95 100.72 C3.95 91.8, 0.87 80.15, 0.42 69.79 C-0.04 59.44, 2.47 47.77, 6.24 38.59 C10.01 29.41, 14.78 21.05, 23.02 14.71 C31.25 8.37, 49.31 2.9, 55.65 0.53 C61.99 -1.84, 60.79 -0.61, 61.04 0.5 M88.17 5.71 C97.13 8.89, 106.5 16.71, 112.05 24.89 C117.59 33.08, 120.22 44.46, 121.42 54.83 C122.63 65.19, 122 77.38, 119.28 87.08 C116.57 96.79, 112.07 105.84, 105.13 113.07 C98.19 120.31, 87.08 127.42, 77.64 130.49 C68.2 133.56, 57.63 133.68, 48.49 131.49 C39.35 129.29, 29.84 124.04, 22.8 117.31 C15.76 110.59, 9.98 100.33, 6.27 91.13 C2.55 81.94, -0.25 72.16, 0.51 62.13 C1.27 52.1, 5.79 40, 10.82 30.95 C15.85 21.91, 22.49 12.86, 30.67 7.86 C38.85 2.85, 50.42 0.95, 59.89 0.92 C69.36 0.89, 82.9 6.72, 87.5 7.69 C92.1 8.66, 87.91 5.78, 87.5 6.74" stroke="#ffffff" stroke-width="2" fill="none"></path></g></svg>