<svg version="1.1" xmlns="http://www.w3.org/2000/svg" viewBox="0 0 192.31671282318257 192.3167128231828" width="192.31671282318257" height="192.3167128231828">
  <!-- svg-source:excalidraw -->
  
  <defs>
    <style class="style-fonts">
      
    </style>
    
  </defs>
  <g stroke-linecap="round" transform="translate(9.999999999999773 10) rotate(0 86.1583564115914 86.1583564115914)"><path d="M50.86 7.49 C60.4 1.46, 72.97 -0.49, 84.5 -0.5 C96.03 -0.52, 109.13 2.57, 120.06 7.38 C130.99 12.2, 142.18 20.01, 150.11 28.38 C158.03 36.75, 163.96 46.59, 167.62 57.61 C171.28 68.63, 173.14 82.84, 172.05 94.5 C170.96 106.15, 166.77 117.43, 161.07 127.53 C155.38 137.63, 147.05 147.97, 137.88 155.11 C128.71 162.26, 117.36 167.94, 106.07 170.41 C94.78 172.88, 81.87 172.37, 70.13 169.95 C58.39 167.54, 45.42 162.59, 35.63 155.93 C25.84 149.27, 17.05 139.87, 11.38 129.99 C5.7 120.12, 2.76 108.27, 1.59 96.66 C0.41 85.05, 1.2 71.43, 4.35 60.34 C7.5 49.25, 11.41 39.3, 20.49 30.13 C29.57 20.96, 51.29 9.6, 58.81 5.32 C66.32 1.05, 65.29 3.35, 65.59 4.49 M78.68 -0.26 C89.76 -2.29, 104.03 2.27, 115.14 6.47 C126.25 10.67, 136.88 17.29, 145.32 24.93 C153.76 32.57, 161.18 41.69, 165.77 52.31 C170.36 62.92, 173.31 76.61, 172.86 88.63 C172.42 100.66, 168.25 113.78, 163.12 124.46 C157.99 135.14, 150.63 145.38, 142.09 152.72 C133.55 160.06, 122.87 165.33, 111.87 168.5 C100.88 171.67, 87.79 173.07, 76.13 171.72 C64.47 170.37, 52.06 166.43, 41.91 160.4 C31.76 154.36, 21.74 145.16, 15.24 135.5 C8.74 125.83, 5.06 114, 2.91 102.4 C0.76 90.8, -0.33 77.3, 2.35 65.9 C5.02 54.5, 11.87 43.39, 18.97 34.03 C26.06 24.67, 34.7 15.29, 44.9 9.74 C55.11 4.19, 74.36 1.94, 80.2 0.74 C86.04 -0.45, 79.72 1.18, 79.95 2.6" stroke="none" stroke-width="0" fill="#a5d8ff"></path><path d="M107.87 2.31 C119.06 3.83, 130.08 11.92, 139.28 19.22 C148.47 26.52, 157.66 35.86, 163.05 46.08 C168.44 56.31, 170.86 68.77, 171.61 80.58 C172.37 92.39, 171.64 105.9, 167.57 116.94 C163.5 127.97, 155.55 138.6, 147.19 146.79 C138.84 154.98, 128.21 161.91, 117.44 166.05 C106.66 170.19, 94.06 172, 82.56 171.63 C71.05 171.26, 58.74 169.04, 48.42 163.82 C38.1 158.6, 28.26 149.33, 20.63 140.31 C13.01 131.3, 6.07 121, 2.67 109.75 C-0.72 98.51, -1.63 84.6, 0.26 72.86 C2.15 61.11, 7.62 49.03, 14.02 39.3 C20.42 29.57, 28.91 20.64, 38.64 14.46 C48.36 8.27, 60.26 4.08, 72.37 2.2 C84.49 0.32, 104.07 2.46, 111.34 3.18 C118.61 3.9, 116.21 5.07, 115.98 6.53 M74.2 0.66 C85.16 -2.32, 98.59 -0.07, 110.17 3.16 C121.75 6.39, 134.9 12.51, 143.69 20.03 C152.49 27.56, 158.05 37.9, 162.94 48.33 C167.84 58.76, 172.46 70.57, 173.06 82.63 C173.65 94.68, 171.34 109.74, 166.52 120.65 C161.69 131.56, 152.78 140.13, 144.1 148.11 C135.41 156.08, 125.42 164.38, 114.4 168.51 C103.38 172.63, 89.69 173.78, 77.97 172.84 C66.24 171.91, 54.17 168.68, 44.07 162.91 C33.97 157.15, 24.28 147.63, 17.38 138.25 C10.47 128.86, 5.44 117.96, 2.65 106.58 C-0.14 95.19, -1.65 81.46, 0.63 69.93 C2.92 58.41, 9.66 46.76, 16.34 37.44 C23.01 28.13, 30.96 20.07, 40.7 14.04 C50.44 8.02, 68.77 3.09, 74.76 1.28 C80.74 -0.53, 76.31 1.71, 76.61 3.17" stroke="#1e1e1e" stroke-width="2" fill="none"></path></g><g stroke-linecap="round" transform="translate(27.565654199953997 27.631993192498385) rotate(0 70.04055345971165 70.04055345971165)"><path d="M77.44 0.81 C87.38 0.69, 98.38 5.67, 106.83 10.71 C115.28 15.75, 122.84 22.64, 128.17 31.04 C133.5 39.43, 137.35 50.76, 138.81 61.08 C140.26 71.39, 140.09 83.46, 136.89 92.92 C133.69 102.38, 126.61 110.55, 119.62 117.85 C112.63 125.14, 104.42 132.98, 94.93 136.7 C85.44 140.41, 72.93 141.17, 62.68 140.12 C52.42 139.08, 42.03 135.64, 33.43 130.45 C24.82 125.26, 16.39 117.58, 11.06 108.99 C5.72 100.39, 2.72 89.14, 1.42 78.89 C0.12 68.63, 0.22 56.9, 3.24 47.45 C6.26 38, 12.49 29.29, 19.54 22.16 C26.59 15.04, 35.61 8.18, 45.55 4.69 C55.49 1.2, 73.45 1.67, 79.18 1.22 C84.91 0.77, 80.1 0.92, 79.93 2.01 M40.95 6.81 C48.99 1.96, 60.68 -1.08, 70.91 -0.81 C81.14 -0.55, 93.27 3.45, 102.32 8.41 C111.37 13.37, 119.01 20.81, 125.19 28.94 C131.37 37.07, 137.03 47.16, 139.38 57.19 C141.72 67.22, 142.15 79.48, 139.28 89.09 C136.41 98.71, 128.89 107.22, 122.14 114.89 C115.38 122.55, 107.82 130.86, 98.75 135.08 C89.68 139.31, 77.97 140.69, 67.71 140.26 C57.45 139.83, 46.23 136.98, 37.2 132.51 C28.18 128.03, 19.45 121.59, 13.58 113.41 C7.7 105.23, 4.04 93.52, 1.95 83.42 C-0.13 73.31, -1.36 62.49, 1.08 52.8 C3.52 43.1, 9.79 33.14, 16.59 25.22 C23.39 17.31, 37.58 8.26, 41.86 5.29 C46.15 2.31, 41.89 5.95, 42.31 7.38" stroke="none" stroke-width="0" fill="#a5d8ff"></path><path d="M54.35 0.65 C63.43 -2.24, 75.59 0.33, 85.48 2.88 C95.37 5.42, 105.76 9.78, 113.69 15.9 C121.63 22.03, 128.85 30.44, 133.09 39.63 C137.34 48.82, 139.12 60.92, 139.15 71.05 C139.18 81.19, 137.65 91.33, 133.27 100.41 C128.88 109.49, 120.92 119.23, 112.85 125.55 C104.78 131.87, 94.85 136.13, 84.83 138.32 C74.81 140.51, 62.65 141.01, 52.72 138.7 C42.8 136.4, 32.89 130.87, 25.3 124.51 C17.71 118.16, 11.48 109.76, 7.21 100.57 C2.93 91.38, -0.39 79.58, -0.34 69.35 C-0.28 59.13, 3 48.38, 7.53 39.22 C12.07 30.06, 17.2 21.01, 26.88 14.39 C36.56 7.78, 57.21 1.77, 65.6 -0.49 C73.98 -2.74, 77.19 -0.41, 77.18 0.86 M84.7 0.82 C94.51 1.78, 105.82 9.2, 114.1 15.56 C122.38 21.93, 130.24 29.91, 134.37 39.01 C138.51 48.12, 139.06 59.86, 138.91 70.2 C138.75 80.54, 137.57 92.2, 133.43 101.04 C129.3 109.89, 121.84 117.06, 114.09 123.28 C106.34 129.5, 96.96 136.05, 86.95 138.36 C76.94 140.66, 64.19 139.5, 54.03 137.12 C43.87 134.74, 33.72 129.91, 25.99 124.07 C18.27 118.23, 12.21 110.82, 7.68 102.08 C3.15 93.33, -1.08 81.71, -1.19 71.6 C-1.31 61.49, 2.58 50.82, 6.97 41.42 C11.37 32.02, 17.2 21.78, 25.17 15.21 C33.14 8.64, 44.95 4.04, 54.8 2.01 C64.64 -0.02, 79.33 3.06, 84.24 3.03 C89.16 3, 84.46 0.96, 84.27 1.82" stroke="#1e1e1e" stroke-width="2" fill="none"></path></g></svg>