<svg version="1.1" xmlns="http://www.w3.org/2000/svg" viewBox="0 0 338.02163359168287 156.75292131103083" width="338.02163359168287" height="156.75292131103083">
  <!-- svg-source:excalidraw -->
  
  <defs>
    <style class="style-fonts">
      
    </style>
    
  </defs>
  <g stroke-linecap="round"><g transform="translate(220.42124389923197 73.17172333674262) rotate(0 49.29345105654363 5.731778748302077)" fill-rule="evenodd"><path d="M-0.11 0.17 C16.62 -9.9, 85.05 -70.53, 100.19 -58.55 C115.32 -46.57, 107.8 62.26, 90.72 72.05 C73.64 81.84, 12.68 12.53, -2.29 0.19" stroke="none" stroke-width="0" fill="#a5d8ff" fill-rule="evenodd"></path><path d="M-0.18 0.19 C16.23 -9.9, 82.84 -71.9, 98.27 -59.83 C113.69 -47.76, 108.81 62.7, 92.35 72.63 C75.89 82.56, 14.89 11.75, -0.48 -0.26 M-1.73 -0.75 C14.51 -11.26, 81.61 -73.58, 97.15 -61.67 C112.69 -49.76, 107.79 60.31, 91.52 70.7 C75.25 81.1, 14.98 12.28, -0.49 0.71" stroke="#1e1e1e" stroke-width="2" fill="none"></path></g></g><mask></mask><g stroke-linecap="round" transform="translate(10 28.272360529400657) rotate(0 114.48953339507392 49.83663206299093)"><path d="M68.13 4.51 C80.96 1.04, 99.89 -0.44, 115.49 -0.42 C131.09 -0.39, 147.75 1.67, 161.75 4.68 C175.75 7.68, 189.2 12.57, 199.48 17.63 C209.77 22.69, 218.77 28.68, 223.44 35.03 C228.11 41.38, 229.21 49.14, 227.5 55.74 C225.8 62.34, 220.85 68.85, 213.21 74.63 C205.58 80.41, 194.39 86.29, 181.7 90.42 C169 94.55, 152.47 97.96, 137.04 99.42 C121.61 100.88, 104.27 100.76, 89.12 99.17 C73.96 97.58, 58.48 94.14, 46.11 89.89 C33.74 85.63, 22.65 79.41, 14.89 73.65 C7.14 67.89, 0.99 62.05, -0.44 55.31 C-1.88 48.58, 1.09 39.81, 6.27 33.24 C11.46 26.68, 19.22 20.86, 30.68 15.91 C42.15 10.95, 66.94 5.74, 75.07 3.53 C83.19 1.31, 78.95 1.8, 79.44 2.61 M151.46 2.9 C165.66 4.25, 179.69 9.2, 190.86 13.55 C202.02 17.9, 212.18 23.01, 218.45 28.99 C224.72 34.97, 228.33 42.6, 228.47 49.44 C228.61 56.27, 225.79 63.74, 219.28 70.02 C212.77 76.3, 201.29 82.35, 189.42 87.12 C177.55 91.89, 162.8 96.79, 148.06 98.66 C133.33 100.54, 116.16 99.18, 101.01 98.36 C85.86 97.54, 70.68 96.98, 57.17 93.73 C43.66 90.48, 29.04 84.32, 19.97 78.87 C10.9 73.41, 5.67 67.67, 2.76 60.97 C-0.14 54.27, -0.68 45.64, 2.57 38.67 C5.82 31.69, 13.13 24.7, 22.27 19.12 C31.42 13.53, 43.7 8.27, 57.43 5.15 C71.15 2.04, 89.31 0.83, 104.62 0.42 C119.93 0.01, 141.55 2.28, 149.31 2.68 C157.07 3.08, 151.42 2.15, 151.18 2.81" stroke="none" stroke-width="0" fill="#a5d8ff"></path><path d="M110.91 -0.88 C125.57 -2.02, 143.87 0.73, 158.35 3.5 C172.84 6.28, 187.02 10.91, 197.81 15.79 C208.6 20.68, 217.94 26.62, 223.1 32.82 C228.26 39.02, 230.17 46.13, 228.76 52.99 C227.36 59.84, 222.13 68.04, 214.65 73.96 C207.17 79.88, 195.94 84.46, 183.89 88.5 C171.83 92.54, 157.41 96.42, 142.32 98.2 C127.24 99.99, 108.67 100.3, 93.39 99.2 C78.12 98.09, 63.53 95.34, 50.66 91.58 C37.8 87.81, 24.47 82.59, 16.21 76.62 C7.95 70.65, 3.1 62.64, 1.13 55.73 C-0.85 48.83, -0.13 41.69, 4.35 35.19 C8.82 28.69, 17.83 21.91, 27.98 16.74 C38.13 11.57, 50.95 6.98, 65.24 4.18 C79.53 1.39, 105.09 0.43, 113.72 -0.03 C122.36 -0.5, 117.14 0.61, 117.05 1.4 M62.13 5.9 C74.22 1.98, 90.99 -0.35, 106.32 -1.08 C121.65 -1.8, 139.66 -0.87, 154.11 1.54 C168.55 3.95, 182.11 8.57, 192.98 13.4 C203.86 18.23, 213.26 24.21, 219.34 30.53 C225.42 36.85, 230 44.61, 229.45 51.34 C228.91 58.06, 222.91 64.91, 216.07 70.89 C209.23 76.86, 199.99 82.59, 188.42 87.21 C176.85 91.83, 161.77 96.83, 146.66 98.62 C131.56 100.41, 113.37 98.8, 97.78 97.94 C82.19 97.09, 66.13 96.67, 53.12 93.49 C40.11 90.31, 28.44 84.53, 19.72 78.84 C11 73.16, 3.67 66.43, 0.8 59.36 C-2.08 52.3, -1.24 43.23, 2.47 36.46 C6.17 29.69, 13.31 23.81, 23.03 18.76 C32.74 13.71, 54.16 8.02, 60.76 6.16 C67.36 4.31, 61.74 7.19, 62.65 7.63" stroke="#1e1e1e" stroke-width="2" fill="none"></path></g><g stroke-linecap="round"><g transform="translate(11.931269154393306 88.02130755542328) rotate(0 25.33231185381436 1.2991024933216408)"><path d="M0.56 -0.64 C8.97 0.07, 41.37 3.14, 49.71 3.58 M-0.61 1.63 C8.23 2.09, 43.52 1.75, 51.92 1.97" stroke="#1e1e1e" stroke-width="2" fill="none"></path></g></g><mask></mask><g stroke-linecap="round" transform="translate(69.7409565752908 47.74954529791353) rotate(0 7.794552704610652 8.119338703827566)"><path d="M8.22 -0.16 C9.72 -0.14, 12.02 0.75, 13.23 2.13 C14.44 3.51, 15.42 6.28, 15.48 8.12 C15.53 9.96, 14.56 11.89, 13.56 13.17 C12.55 14.45, 11.03 15.43, 9.45 15.8 C7.87 16.18, 5.61 16.13, 4.06 15.45 C2.51 14.77, 0.81 13.31, 0.16 11.71 C-0.49 10.11, -0.34 7.55, 0.15 5.83 C0.65 4.12, 1.65 2.41, 3.14 1.41 C4.64 0.4, 8.02 -0.02, 9.13 -0.21 C10.24 -0.4, 9.84 0.04, 9.81 0.29 M7.3 0.18 C8.71 -0.16, 10.47 -0.18, 11.92 0.85 C13.37 1.87, 15.59 4.49, 15.99 6.34 C16.39 8.2, 15.17 10.34, 14.32 11.97 C13.46 13.59, 12.25 15.55, 10.85 16.1 C9.45 16.66, 7.59 15.9, 5.91 15.29 C4.24 14.68, 1.71 13.69, 0.8 12.43 C-0.1 11.18, 0.11 9.42, 0.47 7.75 C0.84 6.08, 1.8 3.67, 3 2.41 C4.2 1.15, 7.04 0.53, 7.69 0.2 C8.33 -0.13, 7 0.41, 6.86 0.45" stroke="none" stroke-width="0" fill="#1e1e1e"></path><path d="M8.06 0.3 C9.62 0.19, 11.06 1.15, 12.3 2.14 C13.54 3.12, 15.14 4.61, 15.5 6.22 C15.86 7.82, 15.22 10.25, 14.46 11.76 C13.7 13.27, 12.46 14.68, 10.95 15.29 C9.43 15.9, 7.06 15.93, 5.4 15.43 C3.73 14.92, 1.82 13.67, 0.96 12.27 C0.1 10.87, 0.02 8.77, 0.24 7.03 C0.45 5.29, 1.05 2.98, 2.26 1.83 C3.46 0.68, 6.47 0.34, 7.49 0.13 C8.5 -0.08, 8.27 0.49, 8.35 0.59 M5.67 -0.16 C7.07 -0.52, 9.23 -0.22, 10.84 0.64 C12.45 1.49, 14.71 3.39, 15.33 5 C15.95 6.6, 15.1 8.67, 14.56 10.28 C14.02 11.88, 13.35 13.57, 12.09 14.62 C10.84 15.67, 8.76 16.87, 7.02 16.58 C5.28 16.28, 2.86 14.13, 1.65 12.87 C0.43 11.61, -0.3 10.57, -0.27 9.03 C-0.24 7.5, 0.81 5.06, 1.83 3.66 C2.84 2.26, 5.14 1.29, 5.8 0.63 C6.46 -0.02, 5.81 -0.33, 5.8 -0.3" stroke="#1e1e1e" stroke-width="2" fill="none"></path></g></svg>