<svg version="1.1" xmlns="http://www.w3.org/2000/svg" viewBox="0 0 192.31671282318257 192.3167128231828" width="192.31671282318257" height="192.3167128231828">
  <!-- svg-source:excalidraw -->
  
  <defs>
    <style class="style-fonts">
      
    </style>
    
  </defs>
  <g stroke-linecap="round" transform="translate(9.999999999999773 10) rotate(0 86.1583564115914 86.1583564115914)"><path d="M26.92 23.4 C26.92 23.4, 26.92 23.4, 26.92 23.4 M26.92 23.4 C26.92 23.4, 26.92 23.4, 26.92 23.4 M6.05 59.59 C18.37 46.74, 27.99 33.41, 50.01 9.02 M6.05 59.59 C20.63 44.03, 33.39 29.04, 50.01 9.02 M2.25 76.16 C19.19 56.67, 35.14 34.46, 65.89 2.95 M2.25 76.16 C26.89 48.3, 51.69 20.71, 65.89 2.95 M0.42 90.46 C18.7 72.98, 35.73 53.04, 77.18 2.16 M0.42 90.46 C28.07 58.6, 54.65 27.24, 77.18 2.16 M3.17 99.48 C22.95 74.89, 44.61 51.76, 89.12 0.62 M3.17 99.48 C25.82 73.58, 46.61 50.23, 89.12 0.62 M5.28 109.26 C40.04 68.04, 74.21 27.81, 98.44 2.09 M5.28 109.26 C41.58 69.13, 77.38 27.05, 98.44 2.09 M8.03 118.28 C33.15 88.19, 58.1 61.28, 107.1 4.32 M8.03 118.28 C35.27 88.91, 63.1 57.44, 107.1 4.32 M11.45 126.55 C46.7 84.99, 85.21 43.24, 115.1 7.31 M11.45 126.55 C47.18 82.7, 84.44 40.47, 115.1 7.31 M16.83 132.55 C49.43 94.75, 79.94 57.61, 123.77 9.54 M16.83 132.55 C51.87 91.36, 90.44 48.58, 123.77 9.54 M21.55 139.31 C52.41 103.98, 84.97 69.04, 130.46 14.03 M21.55 139.31 C59.62 96.14, 98.19 50.59, 130.46 14.03 M26.28 146.07 C47.15 120.15, 69.44 94.83, 136.5 19.28 M26.28 146.07 C50.47 120.88, 72.3 94.29, 136.5 19.28 M31.66 152.07 C56.82 125.41, 81.75 97.61, 142.53 24.53 M31.66 152.07 C54.38 124.69, 78.7 97.96, 142.53 24.53 M39.01 155.81 C79.62 109.12, 120.35 59.8, 148.57 29.78 M39.01 155.81 C67.15 125.36, 94.26 94.05, 148.57 29.78 M45.7 160.31 C77.52 123.15, 111.47 83.35, 154.61 35.02 M45.7 160.31 C79.56 120.09, 114.18 81.21, 154.61 35.02 M52.4 164.8 C79.29 132.55, 107.35 99.86, 158.68 42.54 M52.4 164.8 C81.51 131.66, 109.87 98.93, 158.68 42.54 M59.75 168.54 C81.56 142.43, 103.49 116.21, 162.75 50.05 M59.75 168.54 C95.85 126.97, 133.2 83.16, 162.75 50.05 M69.07 170.01 C99.32 137.03, 128.79 102.86, 166.16 58.32 M69.07 170.01 C102.18 133.72, 134.9 96.22, 166.16 58.32 M79.7 169.98 C107.37 139.06, 139.3 104.66, 170.23 65.83 M79.7 169.98 C98.69 147.93, 118.27 126.66, 170.23 65.83 M89.67 170.7 C118.73 138.71, 145.93 102.81, 170.36 77.87 M89.67 170.7 C118.43 138.94, 146.78 106.14, 170.36 77.87 M100.96 169.91 C123.69 145.07, 141.88 120.92, 170.5 89.91 M100.96 169.91 C117.81 149.61, 136.91 128.1, 170.5 89.91 M115.52 165.35 C132.37 147.73, 145.6 128.87, 171.29 101.2 M115.52 165.35 C129.04 148, 143.03 132.09, 171.29 101.2 M130.09 160.78 C140.01 148.27, 154.72 134.29, 162.89 123.05 M130.09 160.78 C138.68 151.03, 146.98 141.34, 162.89 123.05 M29.38 150.64 C29.38 150.64, 29.38 150.64, 29.38 150.64 M29.38 150.64 C29.38 150.64, 29.38 150.64, 29.38 150.64 M61.04 167.56 C49.88 159.74, 38.42 147.78, 8.97 122.29 M61.04 167.56 C49.86 158.01, 40.12 148.55, 8.97 122.29 M74.59 168.74 C49.47 144.81, 21.98 124.36, 5.16 108.38 M74.59 168.74 C53.66 150.61, 31.63 131.39, 5.16 108.38 M87.39 169.26 C58.5 140.84, 25.43 115.84, 1.35 94.47 M87.39 169.26 C58.22 145.79, 30.62 120.05, 1.35 94.47 M98.68 168.47 C74.28 146.61, 48.35 123.77, 2.07 84.5 M98.68 168.47 C74.59 147.89, 49.46 125.69, 2.07 84.5 M107.7 165.72 C80.8 143.37, 53.81 121.64, 4.3 75.84 M107.7 165.72 C75.41 138.19, 43.42 110.26, 4.3 75.84 M116.72 162.96 C77.82 130.48, 40.73 94.86, 6.53 67.17 M116.72 162.96 C90.44 140.11, 65.3 118.93, 6.53 67.17 M125.74 160.2 C92.49 132.69, 60.93 101.98, 8.76 58.51 M125.74 160.2 C79.12 120.58, 35.16 80.72, 8.76 58.51 M134.01 156.79 C87.69 119.19, 45.13 79.86, 10.99 49.85 M134.01 156.79 C89.38 116.28, 42.85 75.5, 10.99 49.85 M140.01 151.41 C108.71 121.75, 75.69 94.26, 14.73 42.5 M140.01 151.41 C97.14 112.35, 53.18 74.87, 14.73 42.5 M146.02 146.02 C114.54 118.61, 84.41 93.85, 19.22 35.81 M146.02 146.02 C115.95 118.76, 86.22 92.8, 19.22 35.81 M152.02 140.64 C122.48 115.68, 93.9 88.34, 23.72 29.11 M152.02 140.64 C118.79 111.57, 83.32 82.23, 23.72 29.11 M158.02 135.26 C129.89 108.37, 102 83.96, 28.21 22.42 M158.02 135.26 C109.06 92.39, 60.48 50.14, 28.21 22.42 M161.01 127.26 C124.34 92.52, 84.52 63.47, 34.97 17.69 M161.01 127.26 C119.58 91.24, 77.68 53.56, 34.97 17.69 M163.99 119.25 C127.68 89.18, 91.01 56.84, 42.48 13.62 M163.99 119.25 C119.76 81.71, 76.1 44.74, 42.48 13.62 M167.73 111.9 C122.15 72.68, 73.5 30.11, 49.24 8.9 M167.73 111.9 C139.86 84.97, 110.75 61.57, 49.24 8.9 M170.71 103.89 C127.95 66.16, 80.08 28.44, 56 4.17 M170.71 103.89 C126.86 65.01, 84.52 29.97, 56 4.17 M175.21 97.2 C142.65 70.06, 110.11 38.76, 62.76 -0.55 M175.21 97.2 C151.22 75.44, 127.26 55.69, 62.76 -0.55 M175.17 86.57 C139.49 55.28, 98.64 20.36, 73.29 -2 M175.17 86.57 C134.59 50.45, 95.59 15.94, 73.29 -2 M174.38 75.28 C156.07 58.27, 138.52 41.13, 84.57 -2.79 M174.38 75.28 C143.41 48, 110.19 21.08, 84.57 -2.79 M172.09 62.69 C150.29 45.32, 133.04 27.36, 96.61 -2.92 M172.09 62.69 C156.15 48.65, 137.89 32.96, 96.61 -2.92 M163.75 44.84 C143.7 29.95, 127.87 12.81, 116.2 3.51 M163.75 44.84 C150.16 32.22, 135.23 20.15, 116.2 3.51" stroke="#a5d8ff" stroke-width="1" fill="none"></path><path d="M94.46 0.31 C105.49 -0.14, 116.85 4.94, 127.02 10.76 C137.18 16.58, 148.32 26.05, 155.46 35.24 C162.59 44.43, 167.23 54.72, 169.83 65.91 C172.43 77.1, 173.16 90.72, 171.06 102.39 C168.95 114.07, 163.82 126.4, 157.2 135.96 C150.57 145.52, 141.37 153.92, 131.29 159.77 C121.22 165.62, 108.57 169.51, 96.74 171.05 C84.91 172.59, 71.61 172.45, 60.34 169 C49.06 165.56, 37.65 158.12, 29.07 150.37 C20.49 142.61, 13.8 132.88, 8.87 122.48 C3.94 112.08, -0.31 99.53, -0.51 87.96 C-0.72 76.39, 3.12 63.76, 7.63 53.06 C12.15 42.36, 18.17 31.94, 26.6 23.76 C35.04 15.57, 45.96 7.8, 58.25 3.94 C70.53 0.08, 92.08 0.67, 100.32 0.6 C108.57 0.53, 107.88 2.11, 107.74 3.5 M74.48 -0.44 C85.21 -3.63, 97.98 -1.65, 109.19 1.8 C120.39 5.25, 132.45 12.52, 141.71 20.26 C150.96 28, 159.68 38.01, 164.71 48.24 C169.74 58.48, 171.6 70.27, 171.89 81.68 C172.18 93.09, 170.92 105.74, 166.44 116.68 C161.97 127.62, 153.7 139.03, 145.05 147.3 C136.39 155.58, 125.2 162.23, 114.52 166.31 C103.84 170.4, 92.61 172.61, 80.98 171.81 C69.34 171, 55.06 167.03, 44.71 161.49 C34.37 155.95, 25.79 147.46, 18.91 138.57 C12.03 129.67, 6.45 119.52, 3.41 108.13 C0.37 96.74, -1.11 81.65, 0.66 70.24 C2.43 58.82, 7.38 48.94, 14.02 39.64 C20.67 30.34, 30.69 20.75, 40.51 14.44 C50.34 8.14, 67.54 4.01, 72.98 1.83 C78.42 -0.36, 73.03 0.13, 73.16 1.34" stroke="#1e1e1e" stroke-width="2" fill="none"></path></g><g stroke-linecap="round" transform="translate(28.891040492694856 29.322660960243297) rotate(0 70.04055345971165 70.04055345971165)"><path d="M67.5 0.07 C76.87 -1.56, 87.47 1.36, 96.61 5.2 C105.75 9.04, 115.53 15.26, 122.33 23.12 C129.12 30.98, 134.75 42.38, 137.35 52.35 C139.96 62.32, 139.79 73.21, 137.96 82.95 C136.14 92.68, 132.27 102.61, 126.41 110.76 C120.54 118.91, 111.78 126.84, 102.75 131.83 C93.73 136.82, 82.34 140.28, 72.25 140.72 C62.16 141.17, 51.48 138.58, 42.21 134.51 C32.93 130.43, 23.19 124, 16.61 116.27 C10.04 108.53, 5.19 97.88, 2.77 88.09 C0.35 78.29, 0.33 67.25, 2.11 57.5 C3.88 47.76, 7.66 37.69, 13.4 29.62 C19.13 21.55, 27.04 14.01, 36.54 9.09 C46.04 4.16, 64.15 1.44, 70.42 0.07 C76.69 -1.29, 74.3 -0.39, 74.14 0.9 M78.68 1.7 C88.61 1.56, 100.36 4.77, 108.72 10.03 C117.08 15.28, 123.52 24.18, 128.84 33.21 C134.15 42.24, 139.24 54, 140.61 64.2 C141.98 74.4, 140.52 85.01, 137.04 94.41 C133.55 103.82, 127.31 113.56, 119.7 120.66 C112.09 127.76, 101.3 134.02, 91.39 137.02 C81.48 140.02, 70.22 140.13, 60.22 138.64 C50.23 137.15, 39.65 133.49, 31.39 128.06 C23.14 122.62, 16.06 114.56, 10.7 106.03 C5.33 97.5, 0.46 86.67, -0.79 76.87 C-2.04 67.08, -0.35 56.94, 3.19 47.25 C6.74 37.57, 12.94 25.91, 20.49 18.78 C28.04 11.65, 38.97 7.53, 48.47 4.49 C57.97 1.46, 72.35 0.81, 77.46 0.57 C82.58 0.33, 79.08 1.97, 79.16 3.05" stroke="none" stroke-width="0" fill="#a5d8ff"></path><path d="M90.95 3.44 C100.38 5.6, 111.67 13.59, 119.07 20.48 C126.48 27.36, 131.9 35.43, 135.41 44.74 C138.91 54.04, 140.92 66.01, 140.11 76.3 C139.3 86.6, 135.68 97.83, 130.53 106.51 C125.39 115.19, 117.76 122.97, 109.23 128.36 C100.69 133.75, 89.61 137.4, 79.34 138.85 C69.06 140.29, 57.32 140.23, 47.59 137.05 C37.85 133.86, 28.01 126.83, 20.94 119.72 C13.88 112.61, 8.73 103.69, 5.2 94.38 C1.68 85.08, -1.16 73.85, -0.22 63.88 C0.71 53.9, 5.63 43.15, 10.8 34.52 C15.98 25.89, 22.46 17.87, 30.82 12.1 C39.18 6.32, 49.91 1.05, 60.97 -0.14 C72.02 -1.32, 90.18 3.52, 97.16 4.96 C104.15 6.41, 103.25 7.49, 102.89 8.54 M60.66 -0.6 C69.97 -3.32, 81.06 -1.53, 90.69 1.79 C100.31 5.11, 110.75 12.1, 118.41 19.3 C126.07 26.5, 133.13 35.79, 136.64 45 C140.16 54.2, 140.47 64.72, 139.49 74.55 C138.51 84.38, 136.01 95.14, 130.75 103.98 C125.5 112.81, 116.63 121.76, 107.94 127.54 C99.26 133.32, 88.38 137.16, 78.64 138.66 C68.9 140.15, 59.13 139.59, 49.5 136.51 C39.86 133.43, 28.2 127.22, 20.81 120.19 C13.42 113.16, 8.44 103.5, 5.14 94.33 C1.84 85.17, 0.37 75.35, 1.02 65.19 C1.66 55.03, 4.12 42.02, 9.02 33.38 C13.92 24.73, 21.88 18.58, 30.43 13.34 C38.97 8.09, 55.49 3.63, 60.32 1.92 C65.14 0.2, 59.39 2.3, 59.36 3.05" stroke="#1e1e1e" stroke-width="2" fill="none"></path></g></svg>