<svg version="1.1" xmlns="http://www.w3.org/2000/svg" viewBox="0 0 272.74024529826715 291.262584602585" width="272.74024529826715" height="291.262584602585">
  <!-- svg-source:excalidraw -->
  
  <defs>
    <style class="style-fonts">
      
    </style>
    
  </defs>
  <g stroke-linecap="round" transform="translate(10 201.76202840628582) rotate(0 119.77391791668174 39.75027809814958)"><path d="M2.81 7.74 C2.81 7.74, 2.81 7.74, 2.81 7.74 M2.81 7.74 C2.81 7.74, 2.81 7.74, 2.81 7.74 M4.26 18.28 C6.71 13.96, 12.66 6.13, 20 0.16 M4.26 18.28 C8 13.33, 10.93 10.94, 20 0.16 M4.39 30.32 C13.11 23.56, 18.48 13.28, 30.63 0.13 M4.39 30.32 C12.83 19.07, 22.89 8.74, 30.63 0.13 M3.87 43.11 C18.39 28.07, 29.79 13.5, 41.26 0.09 M3.87 43.11 C16.74 27.25, 31.59 10.94, 41.26 0.09 M4 55.15 C20.9 34.93, 38.16 16.47, 51.89 0.06 M4 55.15 C20.06 36.98, 36.48 17.53, 51.89 0.06 M4.13 67.19 C19.31 49.18, 33.64 33.48, 62.52 0.02 M4.13 67.19 C24.28 43.62, 46.22 19.36, 62.52 0.02 M7.55 75.46 C21.97 53.95, 39.59 37.88, 73.15 -0.01 M7.55 75.46 C26.91 53.69, 45.76 32.67, 73.15 -0.01 M13.58 80.71 C33.39 55.85, 54.94 34.93, 83.78 -0.04 M13.58 80.71 C35.49 54.84, 58.27 28.95, 83.78 -0.04 M22.9 82.18 C42.89 61.61, 61.23 39.11, 94.41 -0.08 M22.9 82.18 C50.71 50.87, 77.71 19.4, 94.41 -0.08 M33.53 82.15 C51.69 62.55, 68.95 40.37, 105.04 -0.11 M33.53 82.15 C48.77 63.36, 65.97 45.57, 105.04 -0.11 M44.16 82.12 C66.72 56.43, 91.07 28.2, 115.67 -0.15 M44.16 82.12 C65.52 55.8, 89.37 29.67, 115.67 -0.15 M54.79 82.08 C74.41 62.63, 89.97 41.65, 126.3 -0.18 M54.79 82.08 C71.25 61.44, 89.61 42.78, 126.3 -0.18 M65.42 82.05 C82.38 61.04, 99.02 43.35, 136.93 -0.22 M65.42 82.05 C84.18 59.13, 104.69 37.42, 136.93 -0.22 M76.05 82.01 C90.73 64.95, 106.72 47.84, 146.91 0.5 M76.05 82.01 C100.4 52.91, 126.03 26.02, 146.91 0.5 M86.68 81.98 C104.49 63.08, 120.54 43.44, 157.54 0.47 M86.68 81.98 C112.07 51.43, 138.76 21.16, 157.54 0.47 M97.31 81.94 C120.37 55.72, 144.76 27.33, 168.17 0.43 M97.31 81.94 C119.27 57.57, 141.29 31.05, 168.17 0.43 M107.94 81.91 C135.71 53.83, 162.09 21.65, 178.8 0.4 M107.94 81.91 C124.65 63.11, 139.5 45.66, 178.8 0.4 M118.57 81.87 C148.4 50.85, 175.97 18.31, 189.43 0.37 M118.57 81.87 C141.58 54.89, 167.65 25.54, 189.43 0.37 M129.2 81.84 C155.61 52.45, 179.17 22.85, 200.06 0.33 M129.2 81.84 C155.13 53.25, 179.48 23.82, 200.06 0.33 M139.83 81.81 C159.84 55.96, 180.26 34.98, 210.69 0.3 M139.83 81.81 C156.43 62.18, 174.2 43.61, 210.69 0.3 M149.81 82.53 C173.53 53.68, 198.41 25.37, 220.66 1.02 M149.81 82.53 C177.82 51.34, 204.45 20.35, 220.66 1.02 M160.44 82.49 C180.5 60.57, 196.18 42.08, 229.98 2.49 M160.44 82.49 C175.35 65.16, 190.22 47.8, 229.98 2.49 M171.07 82.46 C192.91 58.06, 213.48 30.4, 236.67 6.99 M171.07 82.46 C188.61 60.43, 207.23 40.96, 236.67 6.99 M181.7 82.42 C197.99 62.6, 216.94 39.03, 239.43 16.01 M181.7 82.42 C198.63 63.35, 214.52 44.04, 239.43 16.01 M192.33 82.39 C210.03 62.34, 226.42 43.57, 239.56 28.05 M192.33 82.39 C204.83 69.11, 218.52 53.2, 239.56 28.05 M202.96 82.35 C215.62 67.03, 227.49 52.58, 239.7 40.09 M202.96 82.35 C213.48 70.61, 225.65 57.33, 239.7 40.09 M213.59 82.32 C221.65 75.76, 229.31 65.48, 239.83 52.13 M213.59 82.32 C222.83 72.05, 230.51 63.06, 239.83 52.13 M223.56 83.04 C229.57 78.87, 234.92 71.11, 241.93 61.91 M223.56 83.04 C229.04 77.5, 234.29 70.34, 241.93 61.91 M2.66 71.62 C2.66 71.62, 2.66 71.62, 2.66 71.62 M2.66 71.62 C2.66 71.62, 2.66 71.62, 2.66 71.62 M23.01 78.71 C18.03 71.88, 11.17 67.45, 0.37 59.03 M23.01 78.71 C17.72 74.5, 13.27 70.97, 0.37 59.03 M35.8 79.23 C26.07 72.4, 14.08 60, 0.33 48.39 M35.8 79.23 C27.48 72.27, 20.18 65.07, 0.33 48.39 M47.84 79.1 C39.48 72.07, 27.93 62.88, 0.3 37.76 M47.84 79.1 C35.23 67.47, 21.81 55.98, 0.3 37.76 M59.88 78.96 C48.57 66.71, 34.82 58.36, 0.26 27.13 M59.88 78.96 C43.22 64.93, 25.77 50.34, 0.26 27.13 M71.93 78.83 C51.41 63.49, 35.03 43.74, 0.23 16.5 M71.93 78.83 C51.12 59.37, 30.08 40.23, 0.23 16.5 M83.97 78.7 C62.99 63.26, 43.86 43.24, 3.21 8.5 M83.97 78.7 C63.31 61.81, 43.39 43.95, 3.21 8.5 M96.76 79.22 C73.33 59.26, 50.93 40.57, 8.46 2.46 M96.76 79.22 C67.3 51.55, 34.46 25.48, 8.46 2.46 M108.8 79.09 C80.13 53.98, 48.04 27.84, 18.24 0.36 M108.8 79.09 C82.69 57.6, 59.14 35.16, 18.24 0.36 M120.84 78.95 C94.61 51.99, 62.81 28.79, 29.52 -0.43 M120.84 78.95 C95.86 55.9, 71.62 33.57, 29.52 -0.43 M132.88 78.82 C99.86 50.91, 69.05 22.83, 41.56 -0.56 M132.88 78.82 C102.32 52.72, 70.25 25.24, 41.56 -0.56 M144.93 78.69 C116.19 54.61, 87.25 31.38, 53.61 -0.7 M144.93 78.69 C121.51 58.43, 97.96 38.32, 53.61 -0.7 M157.72 79.21 C134.23 57.7, 111.42 37.52, 66.4 -0.17 M157.72 79.21 C135.32 58.46, 111.07 39.48, 66.4 -0.17 M169.76 79.08 C135.33 48.1, 101.17 18.76, 78.44 -0.31 M169.76 79.08 C149.94 61.75, 131.2 45.15, 78.44 -0.31 M181.8 78.94 C147.31 49.06, 113.97 19.24, 90.48 -0.44 M181.8 78.94 C154.48 55.75, 128.2 32.43, 90.48 -0.44 M193.84 78.81 C175.16 63.19, 154.85 44.69, 102.52 -0.57 M193.84 78.81 C174.77 61.51, 156.19 45.24, 102.52 -0.57 M206.64 79.33 C183.75 56.51, 158.31 36.92, 114.56 -0.71 M206.64 79.33 C171.76 50.64, 139.2 21.26, 114.56 -0.71 M218.68 79.2 C185.2 49.16, 151.99 19.28, 127.36 -0.18 M218.68 79.2 C197.68 62.45, 176.29 42.65, 127.36 -0.18 M228.46 77.1 C202.14 55.69, 177.54 34.64, 139.4 -0.32 M228.46 77.1 C208.21 60.2, 187.88 43.19, 139.4 -0.32 M235.21 72.37 C204.37 45.56, 177.81 21.78, 151.44 -0.45 M235.21 72.37 C214.66 54.96, 195.35 36.32, 151.44 -0.45 M238.95 65.02 C207.93 40.27, 179.7 13.54, 163.48 -0.58 M238.95 65.02 C219.97 48.63, 201.81 32.86, 163.48 -0.58 M239.67 55.05 C216.32 35.24, 198.18 19.22, 175.52 -0.71 M239.67 55.05 C219.4 38.53, 200.37 21.19, 175.52 -0.71 M239.64 44.42 C221.51 29.96, 201.42 13.02, 188.32 -0.19 M239.64 44.42 C226.1 32.59, 214.56 21.96, 188.32 -0.19 M239.6 33.79 C231.42 25.09, 222.14 16.74, 200.36 -0.33 M239.6 33.79 C228.69 24.96, 219.16 14.36, 200.36 -0.33 M239.57 23.16 C231.04 14.85, 220.81 5.26, 212.4 -0.46 M239.57 23.16 C229.83 16.1, 222.11 6.41, 212.4 -0.46 M237.27 10.56 C234.25 8.41, 230.78 5.32, 225.2 0.06 M237.27 10.56 C233.74 7.34, 231.13 4.41, 225.2 0.06" stroke="#1e1e1e" stroke-width="1" fill="none"></path><path d="M19.88 0 C60.39 2.78, 102.46 0.67, 219.67 0 M19.88 0 C97.71 -0.71, 177.31 -1.74, 219.67 0 M219.67 0 C231.16 1.46, 238.94 6.46, 239.55 19.88 M219.67 0 C231.74 1.04, 237.88 6.77, 239.55 19.88 M239.55 19.88 C240.02 33.45, 241.18 48.9, 239.55 59.63 M239.55 19.88 C239.17 33.97, 239.58 50.52, 239.55 59.63 M239.55 59.63 C239.67 72.8, 232.44 79.94, 219.67 79.5 M239.55 59.63 C240.75 72.74, 233.95 81.36, 219.67 79.5 M219.67 79.5 C156.26 78.97, 87.86 77.78, 19.88 79.5 M219.67 79.5 C163.49 81.74, 107.59 81.31, 19.88 79.5 M19.88 79.5 C5.65 79.56, 1.4 72.92, 0 59.63 M19.88 79.5 C6.23 78.7, -0.87 73.48, 0 59.63 M0 59.63 C-1.5 49.54, -0.95 40.69, 0 19.88 M0 59.63 C-0.59 44.1, 0.38 28.5, 0 19.88 M0 19.88 C0.59 7.78, 8.16 1.14, 19.88 0 M0 19.88 C-1.12 4.35, 4.78 1.36, 19.88 0" stroke="#1e1e1e" stroke-width="2" fill="none"></path></g><g stroke-linecap="round" transform="translate(63.65799262513781 37.22501933918045) rotate(41.612566919759544 77.45503165138126 95.94747129804807)"><path d="M32 0 C53.44 1.86, 68.54 -3.59, 122.91 0 C145.2 0.19, 158.4 9.21, 154.91 32 C153.89 72.22, 158.68 108.46, 154.91 159.89 C156.96 183.54, 145.83 194.58, 122.91 191.89 C106.89 189.57, 86.37 194.95, 32 191.89 C11.11 194.96, -0.5 181.29, 0 159.89 C1.18 130.01, 0.68 95.16, 0 32 C-0.95 10.23, 8.28 3.12, 32 0" stroke="none" stroke-width="0" fill="#ffffff"></path><path d="M32 0 C56.48 0.3, 80.99 -1.15, 122.91 0 M32 0 C67.08 -0.17, 102.17 -1.19, 122.91 0 M122.91 0 C143.45 0.97, 153.34 9.77, 154.91 32 M122.91 0 C144.32 0.64, 156.52 12.66, 154.91 32 M154.91 32 C156.79 61.35, 154.36 90.92, 154.91 159.89 M154.91 32 C155.35 68.99, 155.63 105.89, 154.91 159.89 M154.91 159.89 C153.36 182.05, 143.75 191.86, 122.91 191.89 M154.91 159.89 C155.78 179.07, 144.21 191.65, 122.91 191.89 M122.91 191.89 C89.24 192.87, 52.59 193.85, 32 191.89 M122.91 191.89 C91.34 190.51, 58.44 191.61, 32 191.89 M32 191.89 C12 190.52, -1.18 182.64, 0 159.89 M32 191.89 C11.75 192.42, 0.7 180.84, 0 159.89 M0 159.89 C-1.97 113.11, -1.64 65.72, 0 32 M0 159.89 C0.44 117.65, 0.72 74.15, 0 32 M0 32 C0.28 10.61, 9.19 -0.62, 32 0 M0 32 C1.59 9.43, 10.12 1.52, 32 0" stroke="#1e1e1e" stroke-width="2" fill="none"></path></g><g stroke-linecap="round"><g transform="translate(203.52128949968164 57.40572013447593) rotate(0 -64.85568523630474 68.51690297630341)"><path d="M1.09 -1.02 C-20.24 21.71, -107.09 114.42, -128.75 137.42 M0.21 1.06 C-21.13 23.93, -107.63 112.63, -129.2 135.5" stroke="#1e1e1e" stroke-width="2" fill="none"></path></g></g><mask></mask><g stroke-linecap="round"><g transform="translate(84.27052204443828 87.74142878131408) rotate(0 53.34904865288428 44.45752940420266)"><path d="M-0.68 1 C17.15 15.82, 89.2 74.14, 106.97 88.81 M1.16 0.48 C18.86 15.5, 88.28 75.3, 106.17 90.29" stroke="#1e1e1e" stroke-width="2" fill="none"></path></g></g><mask></mask></svg>