<svg version="1.1" xmlns="http://www.w3.org/2000/svg" viewBox="0 0 337.588854237594 333.923551061009" width="337.588854237594" height="333.923551061009">
  <!-- svg-source:excalidraw -->
  
  <defs>
    <style class="style-fonts">
      
    </style>
    
  </defs>
  <g stroke-linecap="round" transform="translate(40.64468892778086 81.95489605589331) rotate(0 120.98432750255779 120.98432750255785)"><path d="M25.68 47.5 C25.68 47.5, 25.68 47.5, 25.68 47.5 M25.68 47.5 C25.68 47.5, 25.68 47.5, 25.68 47.5 M6.79 81.43 C20.45 67.75, 30.53 54.24, 59.93 20.3 M6.79 81.43 C26.1 57.95, 45.49 36.57, 59.93 20.3 M10.86 88.94 C30.84 67.99, 49.95 45.15, 75.81 14.22 M10.86 88.94 C31.63 64.82, 52.55 40.97, 75.81 14.22 M8.37 104 C26.45 81.97, 46.66 60.43, 95.62 3.62 M8.37 104 C29.66 80.06, 47.5 58.35, 95.62 3.62 M-0.03 125.85 C33.21 87.77, 68.36 49.9, 106.91 2.83 M-0.03 125.85 C38.73 79.16, 80.22 34.18, 106.91 2.83 M2.07 135.63 C30.34 102.58, 59.64 69.39, 117.54 2.8 M2.07 135.63 C31.01 103.67, 59.36 69.91, 117.54 2.8 M4.83 144.65 C37.7 107.51, 68.54 68.32, 128.83 2.01 M4.83 144.65 C44.72 99.39, 83.48 53.71, 128.83 2.01 M6.93 154.43 C38.3 118.38, 68.71 84.98, 138.8 2.73 M6.93 154.43 C55.03 98.14, 105.51 41.24, 138.8 2.73 M9.03 164.2 C43.91 125.84, 79.85 85.3, 147.46 4.96 M9.03 164.2 C59.2 107.28, 109.75 49.44, 147.46 4.96 M14.42 170.21 C54.92 121.23, 99.11 70.66, 155.47 7.95 M14.42 170.21 C51.34 128.57, 87.06 86.14, 155.47 7.95 M18.49 177.72 C58.07 130.58, 101.27 81.78, 163.47 10.93 M18.49 177.72 C67.9 121.04, 117.91 64.65, 163.47 10.93 M22.55 185.23 C57.22 144.29, 95.56 102.02, 172.14 13.16 M22.55 185.23 C60.34 142.95, 96.6 99.39, 172.14 13.16 M27.28 191.99 C81.89 127.13, 136.17 64.22, 180.14 16.14 M27.28 191.99 C69.81 143.94, 112.05 95.58, 180.14 16.14 M31.35 199.5 C72.16 152.18, 114.46 104.89, 186.18 21.39 M31.35 199.5 C65.53 160.17, 99.65 121.18, 186.18 21.39 M36.08 206.26 C98.64 137.52, 156.12 67.37, 192.87 25.89 M36.08 206.26 C72.14 162.5, 108.52 121.26, 192.87 25.89 M42.11 211.51 C78.35 168.29, 114.11 128.26, 198.91 31.13 M42.11 211.51 C96.27 151.09, 148.06 91.38, 198.91 31.13 M48.81 216 C81.06 177.61, 114.76 141.85, 204.95 36.38 M48.81 216 C87.88 170.61, 127.45 126.01, 204.95 36.38 M54.84 221.25 C91.55 176.65, 131.72 131.03, 211.64 40.88 M54.84 221.25 C98.05 171.55, 141.07 120.1, 211.64 40.88 M60.88 226.5 C95.05 187.38, 131.09 147.03, 215.71 48.39 M60.88 226.5 C121.71 156.58, 183.33 87.35, 215.71 48.39 M66.92 231.75 C103.77 191, 143.65 146.14, 220.44 55.15 M66.92 231.75 C105.61 187.02, 145.28 142.15, 220.44 55.15 M75.58 233.98 C133.76 167.79, 190.91 101.78, 224.51 62.66 M75.58 233.98 C124.27 176.75, 174.59 118.94, 224.51 62.66 M83.59 236.96 C114.2 202.85, 144.93 168.45, 228.58 70.17 M83.59 236.96 C136 177.66, 186.56 120.66, 228.58 70.17 M92.25 239.19 C142.16 183.33, 190.54 125.22, 233.3 76.93 M92.25 239.19 C142.91 181.25, 191.88 124.92, 233.3 76.93 M100.26 242.18 C148.26 186.39, 200.62 129.89, 236.06 85.95 M100.26 242.18 C152.95 182.44, 204.6 121.55, 236.06 85.95 M108.26 245.16 C152.76 194.62, 196.66 144.7, 238.16 95.73 M108.26 245.16 C152.56 192.51, 196.65 140.92, 238.16 95.73 M119.55 244.37 C165.18 194.59, 208.07 144.25, 240.26 105.51 M119.55 244.37 C153.15 203.64, 187.76 166.75, 240.26 105.51 M130.83 243.58 C166.1 203.91, 202.79 161.96, 242.36 115.28 M130.83 243.58 C154.98 217.2, 178.78 189.82, 242.36 115.28 M141.46 243.55 C174.73 204.45, 211.38 164.79, 247.09 122.04 M141.46 243.55 C170.34 213.04, 197.17 181.15, 247.09 122.04 M151.44 244.27 C189.76 202.83, 222.8 162.62, 245.25 136.35 M151.44 244.27 C176.13 216.91, 200.64 187.78, 245.25 136.35 M167.32 238.2 C192.51 206.56, 220.1 174.02, 236.86 158.2 M167.32 238.2 C187.56 215.94, 206 194.79, 236.86 158.2 M187.79 226.84 C201.02 214.01, 212.16 198.65, 219.93 189.86 M187.79 226.84 C194.65 218.63, 201.06 210.47, 219.93 189.86 M30.44 201.24 C30.44 201.24, 30.44 201.24, 30.44 201.24 M30.44 201.24 C30.44 201.24, 30.44 201.24, 30.44 201.24 M78.71 232.6 C58.07 212.07, 34.83 195.79, 16.82 178.8 M78.71 232.6 C56.51 212.45, 31.67 193.63, 16.82 178.8 M97.54 238.37 C67.17 210.06, 38.33 185.61, 8.49 160.95 M97.54 238.37 C79.42 220.88, 58.98 205.24, 8.49 160.95 M111.85 240.2 C83.47 216.24, 54.24 191.77, 5.43 147.7 M111.85 240.2 C86.49 217.25, 59.19 193.34, 5.43 147.7 M123.13 239.41 C96.63 215.61, 74.71 196.34, 2.38 134.44 M123.13 239.41 C96.68 215.55, 68.37 192.3, 2.38 134.44 M135.17 239.28 C86.39 195.93, 39.18 153.46, 0.08 121.85 M135.17 239.28 C90.25 200.44, 44.97 162.42, 0.08 121.85 M146.46 238.49 C96.27 193.46, 43.98 149.76, 1.56 112.53 M146.46 238.49 C96.5 193.29, 46.81 150.09, 1.56 112.53 M154.73 235.08 C113.76 199.96, 75.56 166.72, 3.03 103.21 M154.73 235.08 C106.75 194.53, 58.81 153.44, 3.03 103.21 M163.75 232.32 C106.63 181.43, 47.03 131.06, 3.75 93.24 M163.75 232.32 C103.21 180.74, 42.72 126.79, 3.75 93.24 M172.02 228.91 C122.91 187.74, 75.29 143.77, 5.23 83.92 M172.02 228.91 C104.94 171.97, 39.89 115.14, 5.23 83.92 M180.28 225.49 C140.81 188.89, 101.54 155.8, 9.72 77.22 M180.28 225.49 C114.24 168.72, 50.23 112.83, 9.72 77.22 M187.8 221.42 C140.53 178.4, 91.43 136.93, 13.46 69.88 M187.8 221.42 C132.69 172.69, 74.99 122.12, 13.46 69.88 M193.8 216.04 C128.2 158.06, 62.53 98.85, 17.2 62.53 M193.8 216.04 C151.45 177.86, 107.08 139.22, 17.2 62.53 M199.8 210.66 C136.25 156.31, 73.27 99.59, 21.69 55.83 M199.8 210.66 C162.82 178.99, 126 147.28, 21.69 55.83 M205.81 205.28 C167.18 170.07, 128.94 137.05, 25.43 48.48 M205.81 205.28 C147.18 155.54, 89.85 104.33, 25.43 48.48 M211.81 199.9 C144.26 142.55, 80.19 84.59, 30.68 42.44 M211.81 199.9 C163.71 159.31, 116.39 117.78, 30.68 42.44 M217.81 194.52 C155.11 139.99, 88.6 81.84, 36.68 37.06 M217.81 194.52 C148.06 133.44, 77.53 72.64, 36.68 37.06 M221.55 187.17 C172.93 145.27, 124.4 102.47, 41.93 31.02 M221.55 187.17 C172.72 145.33, 125.25 102.99, 41.93 31.02 M225.29 179.82 C182.08 142.33, 136.81 104.49, 47.93 25.64 M225.29 179.82 C180.09 140.09, 135.59 101.61, 47.93 25.64 M229.03 172.47 C174.4 122.01, 115.48 71.03, 53.94 20.26 M229.03 172.47 C168.44 120.68, 108.87 68.26, 53.94 20.26 M232.77 165.12 C175.33 116.04, 118.62 67.07, 60.7 15.54 M232.77 165.12 C165.21 107.59, 100.02 50.37, 60.7 15.54 M236.51 157.77 C183.5 114.47, 129.71 67.94, 69.72 12.78 M236.51 157.77 C179.43 111.16, 124.33 62.47, 69.72 12.78 M237.98 148.45 C197.41 113.23, 158.52 76.93, 77.98 9.37 M237.98 148.45 C193.71 110.58, 149.3 72.39, 77.98 9.37 M239.46 139.13 C190.29 97.36, 145.49 57.85, 86.25 5.95 M239.46 139.13 C203.38 106.1, 164.7 73.6, 86.25 5.95 M240.18 129.16 C197.31 94.82, 154.39 58.66, 94.52 2.54 M240.18 129.16 C201.68 96.18, 161.39 61.63, 94.52 2.54 M241.65 119.84 C197.92 83.14, 157.32 47.8, 105.81 1.75 M241.65 119.84 C213.4 94.86, 183.79 69.13, 105.81 1.75 M240.11 107.9 C203.01 76.91, 164.43 42.53, 117.09 0.96 M240.11 107.9 C196.27 68.13, 154.03 31.54, 117.09 0.96 M237.06 94.64 C212.68 73.05, 186.11 52.21, 129.13 0.83 M237.06 94.64 C205.8 65.71, 171.82 36.8, 129.13 0.83 M234 81.39 C200.72 50.99, 165.32 20.96, 144.19 3.32 M234 81.39 C203.96 53.21, 171.06 27.64, 144.19 3.32 M226.42 64.2 C208.76 51.87, 191.82 36.33, 163.78 9.75 M226.42 64.2 C205.61 45.22, 183.29 26.67, 163.78 9.75" stroke="#ffffff" stroke-width="1" fill="none"></path><path d="M178.01 14.21 C190.68 18.69, 202.34 30.68, 211.4 40.92 C220.45 51.17, 227.27 63.02, 232.35 75.68 C237.43 88.33, 241.21 103.13, 241.88 116.87 C242.56 130.6, 240.55 145.14, 236.41 158.1 C232.28 171.06, 225.68 183.68, 217.09 194.62 C208.49 205.56, 196.8 216.31, 184.86 223.72 C172.92 231.14, 158.92 236.21, 145.44 239.1 C131.96 241.99, 117.59 242.82, 103.96 241.07 C90.33 239.32, 75.92 235.26, 63.66 228.61 C51.4 221.97, 39.46 211.57, 30.41 201.22 C21.37 190.86, 14.5 179.09, 9.37 166.48 C4.25 153.87, 0.35 139.23, -0.35 125.57 C-1.05 111.9, 0.82 97.53, 5.19 84.5 C9.55 71.46, 17.26 58.52, 25.82 47.35 C34.38 36.18, 45.01 24.9, 56.54 17.48 C68.07 10.05, 81.57 5.52, 95 2.8 C108.42 0.07, 122.2 -1.44, 137.1 1.15 C152.01 3.75, 175.57 14.33, 184.43 18.36 C193.3 22.39, 191.08 23.7, 190.27 25.34 M72.37 9.72 C83.34 2.95, 97.81 1.98, 111.21 0.89 C124.61 -0.19, 139.12 -0.58, 152.78 3.19 C166.44 6.96, 181.54 15.1, 193.17 23.54 C204.81 31.97, 215.18 42.59, 222.59 53.81 C230 65.03, 234.5 77.7, 237.63 90.86 C240.77 104.02, 242.93 118.72, 241.41 132.77 C239.9 146.82, 234.46 162.68, 228.55 175.14 C222.63 187.6, 215.48 198.25, 205.92 207.53 C196.36 216.81, 183.82 225.15, 171.21 230.8 C158.6 236.44, 144.25 240.44, 130.28 241.39 C116.31 242.33, 100.72 240.22, 87.38 236.45 C74.04 232.68, 61.43 226.6, 50.24 218.78 C39.05 210.95, 28.03 201.03, 20.25 189.51 C12.47 177.99, 6.7 163.34, 3.56 149.67 C0.42 136, -0.1 121.15, 1.41 107.47 C2.92 93.79, 6.81 79.62, 12.6 67.59 C18.39 55.56, 26.38 44.61, 36.14 35.28 C45.91 25.95, 65.32 15.3, 71.18 11.62 C77.03 7.94, 70.15 11.41, 71.26 13.19" stroke="#1e1e1e" stroke-width="2" fill="none"></path></g><g stroke-linecap="round" transform="translate(90.0495990104655 167.87855861465925) rotate(0 19.257789723707333 17.936170612459932)"><path d="M19.97 0.26 C23.91 0.2, 28.72 2.15, 31.73 4.66 C34.75 7.17, 37.4 11.59, 38.06 15.32 C38.72 19.04, 37.83 23.72, 35.7 26.99 C33.57 30.27, 29.17 33.7, 25.28 34.96 C21.39 36.21, 16.11 35.91, 12.34 34.52 C8.57 33.13, 4.72 29.93, 2.68 26.65 C0.64 23.36, -0.58 18.56, 0.09 14.81 C0.77 11.07, 3.46 6.67, 6.76 4.17 C10.05 1.66, 17.51 0.44, 19.87 -0.21 C22.24 -0.86, 20.85 -0.01, 20.92 0.25 M21.14 -0.3 C25.01 -0.3, 30.06 2.37, 33.01 5.2 C35.96 8.02, 38.56 12.8, 38.82 16.64 C39.08 20.47, 36.91 25.12, 34.59 28.23 C32.27 31.35, 28.74 34.22, 24.89 35.34 C21.04 36.46, 15.41 36.64, 11.5 34.93 C7.59 33.21, 3.2 28.7, 1.43 25.05 C-0.34 21.39, -0.31 16.53, 0.89 13.02 C2.08 9.5, 5.18 6.04, 8.59 3.95 C12 1.85, 19.35 0.92, 21.32 0.45 C23.29 -0.02, 20.44 0.8, 20.4 1.12" stroke="none" stroke-width="0" fill="#1e1e1e"></path><path d="M19.08 0.01 C22.96 -0.24, 28.58 1.91, 31.81 4.39 C35.03 6.87, 37.71 11.19, 38.44 14.9 C39.18 18.61, 38.36 23.33, 36.2 26.67 C34.04 30.01, 29.53 33.61, 25.51 34.93 C21.49 36.26, 15.96 35.95, 12.1 34.6 C8.25 33.26, 4.38 30.12, 2.37 26.86 C0.37 23.59, -0.66 18.87, 0.07 15.01 C0.79 11.15, 3.26 6.18, 6.73 3.7 C10.19 1.22, 18.43 0.63, 20.89 0.13 C23.34 -0.37, 21.59 0.32, 21.46 0.68 M19.4 -0.61 C23.24 -0.73, 29.21 1.59, 32.37 4.16 C35.52 6.74, 37.83 11.07, 38.33 14.85 C38.83 18.62, 37.57 23.37, 35.34 26.81 C33.11 30.25, 28.94 34.31, 24.95 35.49 C20.96 36.67, 15.19 35.53, 11.4 33.88 C7.62 32.24, 4.02 28.98, 2.26 25.61 C0.49 22.24, 0.05 17.27, 0.83 13.67 C1.61 10.07, 3.84 6.41, 6.94 4.01 C10.03 1.61, 17.1 -0.15, 19.39 -0.71 C21.68 -1.27, 20.45 0.17, 20.67 0.64" stroke="#1e1e1e" stroke-width="2" fill="none"></path></g><g stroke-linecap="round" transform="translate(186.33852350157395 169.20018375776397) rotate(0 19.257789723707333 17.936170612459932)"><path d="M15.15 0.67 C18.83 -0.31, 24.46 0.6, 28.1 2.34 C31.75 4.07, 35.5 7.55, 37.03 11.09 C38.56 14.63, 38.55 19.93, 37.27 23.57 C36 27.22, 32.79 30.96, 29.38 32.98 C25.97 35, 20.92 36.14, 16.8 35.67 C12.68 35.2, 7.54 33.01, 4.68 30.18 C1.83 27.35, -0.21 22.61, -0.33 18.69 C-0.46 14.76, 1.16 9.74, 3.92 6.65 C6.69 3.56, 14.09 1.23, 16.24 0.14 C18.39 -0.95, 16.8 -0.29, 16.82 0.1 M21.91 0.23 C25.82 0.59, 31.07 3.36, 33.74 6.19 C36.41 9.01, 37.69 13.41, 37.91 17.19 C38.13 20.97, 37.41 25.72, 35.06 28.87 C32.7 32.01, 27.93 35.32, 23.76 36.05 C19.59 36.78, 13.7 35.18, 10.04 33.25 C6.38 31.31, 3.26 27.78, 1.82 24.45 C0.39 21.12, 0.15 16.8, 1.41 13.27 C2.67 9.74, 6.07 5.37, 9.39 3.29 C12.71 1.22, 19.22 1.23, 21.34 0.84 C23.46 0.45, 22.11 0.82, 22.11 0.97" stroke="none" stroke-width="0" fill="#1e1e1e"></path><path d="M23.51 0.5 C27.49 1.06, 32.22 3.97, 34.78 6.95 C37.34 9.93, 39.12 14.51, 38.87 18.38 C38.62 22.26, 36.2 27.32, 33.27 30.19 C30.35 33.06, 25.42 35.12, 21.33 35.62 C17.24 36.11, 12.19 35.15, 8.74 33.15 C5.28 31.16, 1.86 27.4, 0.6 23.65 C-0.66 19.89, -0.52 14.22, 1.17 10.63 C2.86 7.03, 6.88 3.7, 10.73 2.07 C14.58 0.44, 21.9 0.91, 24.26 0.85 C26.63 0.79, 24.96 1.4, 24.93 1.73 M17.79 -0.48 C21.79 -1.02, 27.04 0.38, 30.36 2.57 C33.69 4.75, 36.69 8.72, 37.72 12.64 C38.75 16.55, 38.37 22.56, 36.55 26.05 C34.74 29.54, 30.52 32.17, 26.81 33.6 C23.09 35.03, 18.09 35.59, 14.25 34.61 C10.42 33.64, 6.26 30.75, 3.8 27.74 C1.34 24.74, -0.7 20.46, -0.5 16.58 C-0.3 12.7, 1.89 7.17, 5.02 4.46 C8.15 1.76, 16.05 0.95, 18.28 0.33 C20.52 -0.3, 18.54 0.53, 18.41 0.73" stroke="#1e1e1e" stroke-width="2" fill="none"></path></g><g stroke-linecap="round"><g transform="translate(144.4243785822773 246.04250631635398) rotate(0 -47.766855923503726 27.376259297359866)"><path d="M1.07 -0.97 C-14.86 8.05, -79.43 45.38, -95.51 54.74 M0.17 1.14 C-15.92 10.31, -80.41 47.61, -96.45 56.27" stroke="#1e1e1e" stroke-width="2" fill="none"></path></g></g><mask></mask><g stroke-linecap="round"><g transform="translate(144.4244268371349 244.1544867698168) rotate(0 -66.83581835875736 10.572916698836536)"><path d="M0.02 -0.01 C-22.42 3.75, -111.21 17.91, -133.54 21.59 M-1.43 -1.07 C-24.11 2.41, -112.17 16.15, -134.42 19.69" stroke="#1e1e1e" stroke-width="2" fill="none"></path></g></g><mask></mask><g stroke-linecap="round"><g transform="translate(141.7812187739255 243.77685632033774) rotate(0 -58.90616400984436 -13.404915859356493)"><path d="M0.13 0.44 C-19.56 -3.87, -98.31 -21.31, -118.13 -25.89 M-1.26 -0.37 C-21.14 -5.01, -100.05 -23.28, -119.25 -27.54" stroke="#1e1e1e" stroke-width="2" fill="none"></path></g></g><mask></mask><g stroke-linecap="round"><g transform="translate(195.02326382558704 247.93052586289093) rotate(0 43.990853021572434 23.60022020428562)"><path d="M-0.32 0.92 C14.15 8.66, 72.22 39.35, 86.97 46.92 M1.71 0.35 C16.54 8.24, 74.85 40.49, 89.15 48.31" stroke="#1e1e1e" stroke-width="2" fill="none"></path></g></g><mask></mask><g stroke-linecap="round"><g transform="translate(196.53373736864523 246.79770689674012) rotate(0 53.99731801433347 7.552072154291409)"><path d="M-1.02 -0.28 C17.07 1.94, 90.04 11.74, 108.16 14.26 M0.65 -1.48 C18.62 0.8, 89.61 12.43, 107.3 15.36" stroke="#1e1e1e" stroke-width="2" fill="none"></path></g></g><mask></mask><g stroke-linecap="round"><g transform="translate(198.04413852941798 244.53209309186707) rotate(0 61.54933588191034 -15.104144308582761)"><path d="M0.17 -0.84 C20.81 -5.87, 102.29 -25.43, 122.83 -30.43 M-1.2 1.33 C19.34 -3.49, 101.07 -23.82, 121.74 -29.01" stroke="#1e1e1e" stroke-width="2" fill="none"></path></g></g><mask></mask><g stroke-linecap="round"><g transform="translate(42.22147098601795 162.60402687172638) rotate(0 120.82978917836454 -74.89564395524987)" fill-rule="evenodd"><path d="M-3.98 -0.98 C38.18 -1.66, 207.29 3.5, 252.89 -3.98 C298.49 -11.47, 271.87 -29.95, 269.61 -45.88 C267.36 -61.81, 249.43 -85.66, 239.37 -99.55 C229.31 -113.45, 221.03 -122.28, 209.28 -129.24 C197.53 -136.2, 183.94 -138.2, 168.84 -141.31 C153.75 -144.41, 138.07 -149.36, 118.71 -147.87 C99.36 -146.39, 71.88 -143.29, 52.72 -132.41 C33.55 -121.53, 17.03 -97.92, 3.73 -82.6 C-9.57 -67.29, -21.53 -53.18, -27.07 -40.5 C-32.62 -27.81, -34.05 -13.51, -29.54 -6.49 C-25.02 0.54, -4.73 0.68, 0.02 1.66" stroke="none" stroke-width="0" fill="#ffec99" fill-rule="evenodd"></path><path d="M-1.46 -0.95 C41.15 -1.47, 209.03 4.91, 254.21 -3.14 C299.39 -11.18, 272.59 -33.25, 269.61 -49.24 C266.64 -65.23, 246.57 -86, 236.36 -99.1 C226.14 -112.19, 219.62 -120.71, 208.33 -127.8 C197.05 -134.9, 183.73 -137.93, 168.62 -141.67 C153.5 -145.41, 136.85 -151.58, 117.64 -150.26 C98.44 -148.94, 72.59 -144.74, 53.39 -133.74 C34.2 -122.74, 15.66 -100.17, 2.49 -84.25 C-10.69 -68.32, -20.69 -51.24, -25.64 -38.2 C-30.59 -25.15, -31.1 -12.21, -27.2 -5.97 C-23.31 0.27, -6.46 -1.89, -2.28 -0.73 M-2.65 1.17 C39.85 0.84, 208.6 6.64, 253.87 -1.64 C299.15 -9.92, 271.99 -31.92, 269.01 -48.5 C266.04 -65.08, 246.32 -87.95, 236 -101.12 C225.69 -114.29, 218.16 -120.61, 207.13 -127.5 C196.1 -134.39, 184.62 -139.01, 169.84 -142.46 C155.05 -145.91, 137.48 -149.66, 118.41 -148.19 C99.34 -146.73, 74.52 -144.09, 55.42 -133.68 C36.33 -123.27, 17.2 -101.57, 3.85 -85.73 C-9.51 -69.89, -19.61 -52.04, -24.69 -38.64 C-29.78 -25.24, -30.74 -11.49, -26.66 -5.31 C-22.58 0.87, -4.31 -2.54, -0.2 -1.54" stroke="#1e1e1e" stroke-width="2" fill="none"></path></g></g><mask></mask><g stroke-linecap="round"><g transform="translate(46.561656507410135 160.8669284675703) rotate(0 122.79664056426827 -74.89564395524987)" fill-rule="evenodd"><path d="M29.04 -111.23 C29.04 -111.23, 29.04 -111.23, 29.04 -111.23 M29.04 -111.23 C29.04 -111.23, 29.04 -111.23, 29.04 -111.23 M-23.97 -38.06 C-1.99 -66.45, 24.43 -91.73, 61.32 -136.17 M-23.97 -38.06 C-1.7 -63.56, 19.91 -89.97, 61.32 -136.17 M-27.77 -21.49 C0.65 -51.85, 27.8 -84.53, 77.2 -142.25 M-27.77 -21.49 C2.02 -57.25, 34.97 -92.02, 77.2 -142.25 M-26.98 -10.21 C10.11 -55.3, 50.77 -99.82, 91.11 -146.05 M-26.98 -10.21 C-0.92 -41.91, 26.26 -71.73, 91.11 -146.05 M-22.26 -3.45 C13.64 -46.19, 53.74 -90.95, 103.05 -147.6 M-22.26 -3.45 C12.03 -43.84, 45.9 -81.48, 103.05 -147.6 M-13.6 -1.22 C34.06 -58.5, 84.27 -112.27, 114.99 -149.14 M-13.6 -1.22 C14.74 -35.5, 44.73 -68.58, 114.99 -149.14 M-4.28 0.26 C27.53 -35.16, 57.06 -68.53, 125.62 -149.18 M-4.28 0.26 C30.67 -38.69, 66.55 -79.28, 125.62 -149.18 M5.7 0.98 C34.3 -32.83, 61.29 -64.5, 135.6 -148.46 M5.7 0.98 C59.41 -60.72, 110.44 -120.01, 135.6 -148.46 M16.33 0.94 C59.3 -46.22, 100.14 -94.29, 145.57 -147.74 M16.33 0.94 C50.44 -39, 85.82 -77.97, 145.57 -147.74 M26.96 0.91 C70.7 -51.32, 115.25 -99.63, 154.23 -145.51 M26.96 0.91 C55.1 -32.56, 82.45 -64.76, 154.23 -145.51 M37.59 0.87 C69.99 -34.1, 101.42 -72.77, 162.89 -143.28 M37.59 0.87 C75.89 -41.88, 111.88 -85.5, 162.89 -143.28 M48.22 0.84 C92.97 -53.24, 139 -107.13, 171.56 -141.05 M48.22 0.84 C86.21 -41.11, 122.2 -84.76, 171.56 -141.05 M58.85 0.8 C97.34 -41.5, 136.42 -88.63, 180.22 -138.82 M58.85 0.8 C86.39 -29.95, 113.34 -60.05, 180.22 -138.82 M68.82 1.52 C92.97 -29.57, 119.42 -58.29, 188.88 -136.59 M68.82 1.52 C93.37 -28.09, 120.92 -58.78, 188.88 -136.59 M79.45 1.49 C106.63 -28.19, 131.48 -59.73, 196.89 -133.6 M79.45 1.49 C117.76 -42.83, 155.26 -86.82, 196.89 -133.6 M90.08 1.46 C123.83 -41.48, 161.42 -84.23, 204.23 -129.86 M90.08 1.46 C116.81 -31.4, 145.48 -65.51, 204.23 -129.86 M100.71 1.42 C131.31 -32.66, 160.33 -64.77, 211.58 -126.13 M100.71 1.42 C142.56 -45.55, 183.21 -93.71, 211.58 -126.13 M111.34 1.39 C131.85 -27.01, 156.55 -50.66, 218.28 -121.63 M111.34 1.39 C137.72 -29.64, 163.82 -58.16, 218.28 -121.63 M121.97 1.35 C161.18 -43.58, 199.43 -87.92, 224.32 -116.38 M121.97 1.35 C155.32 -40.44, 191.58 -79.6, 224.32 -116.38 M132.6 1.32 C163.44 -38.58, 196.75 -73.39, 229.7 -110.38 M132.6 1.32 C168.26 -41.7, 204.99 -83.98, 229.7 -110.38 M142.57 2.04 C168.1 -28.93, 193.45 -56.39, 235.08 -104.38 M142.57 2.04 C166.48 -26.42, 190.79 -54.84, 235.08 -104.38 M153.21 2 C176.38 -26.59, 201.87 -52.63, 240.46 -98.37 M153.21 2 C185.12 -35.88, 219.58 -73.74, 240.46 -98.37 M163.84 1.97 C188.59 -28.79, 214.95 -57.95, 245.84 -92.37 M163.84 1.97 C195.66 -36.12, 226.61 -72.53, 245.84 -92.37 M175.12 1.18 C193.77 -21.65, 214.01 -44.44, 250.57 -85.61 M175.12 1.18 C197.45 -25.75, 219.8 -50.05, 250.57 -85.61 M186.41 0.39 C200.89 -17.77, 219.46 -35.6, 255.29 -78.85 M186.41 0.39 C202.78 -18.27, 219.85 -36.68, 255.29 -78.85 M197.04 0.36 C214.61 -22.55, 235.69 -45.11, 260.02 -72.1 M197.04 0.36 C218.73 -25.7, 239.03 -50.34, 260.02 -72.1 M207.67 0.32 C230.85 -23.65, 252.35 -51.02, 264.09 -64.58 M207.67 0.32 C227.16 -21.89, 246.67 -46.27, 264.09 -64.58 M218.95 -0.47 C230.18 -14.72, 243.71 -31, 268.81 -57.83 M218.95 -0.47 C232.23 -15.41, 243.75 -29.63, 268.81 -57.83 M229.58 -0.5 C243.5 -14.9, 257.78 -33.97, 271.57 -48.8 M229.58 -0.5 C242.62 -16.81, 257.24 -31.87, 271.57 -48.8 M240.87 -1.29 C254.82 -15.65, 264.42 -31.48, 274.99 -40.54 M240.87 -1.29 C252.89 -14.36, 263.67 -27.16, 274.99 -40.54 M252.16 -2.08 C256.95 -7.8, 265.07 -16.47, 277.74 -31.51 M252.16 -2.08 C262.88 -12.8, 271.93 -24.53, 277.74 -31.51 M265.41 -5.13 C268 -9.55, 274.84 -17.12, 281.16 -23.25 M265.41 -5.13 C270.83 -10.96, 277.34 -18.96, 281.16 -23.25 M-25.75 -5.43 C-25.75 -5.43, -25.75 -5.43, -25.75 -5.43 M-25.75 -5.43 C-25.75 -5.43, -25.75 -5.43, -25.75 -5.43 M-15.98 -7.53 C-18 -10.07, -20.42 -10.76, -24.28 -14.75 M-15.98 -7.53 C-18.67 -10.14, -21.16 -11.43, -24.28 -14.75 M2.1 -2.42 C-4.36 -10.03, -12.85 -16.39, -23.56 -24.72 M2.1 -2.42 C-5.26 -8.56, -13.18 -15.17, -23.56 -24.72 M14.14 -2.55 C2.24 -12.27, -14.16 -24, -21.33 -33.38 M14.14 -2.55 C6.86 -10.32, -2.24 -15.23, -21.33 -33.38 M26.94 -2.03 C10.56 -16.58, -8.26 -30.62, -19.85 -42.7 M26.94 -2.03 C13.76 -14, 0.6 -25.64, -19.85 -42.7 M38.98 -2.16 C21.95 -19.67, 3.87 -34.16, -16.87 -50.71 M38.98 -2.16 C23.78 -14.44, 9.5 -26.67, -16.87 -50.71 M51.02 -2.29 C29.72 -20.51, 6.55 -37.85, -12.38 -57.4 M51.02 -2.29 C36.13 -14.71, 20.91 -28.69, -12.38 -57.4 M63.81 -1.77 C35.58 -25.49, 10.41 -48.48, -7.88 -64.1 M63.81 -1.77 C36.47 -26.81, 9.36 -49.8, -7.88 -64.1 M75.86 -1.9 C53.24 -19.21, 32.65 -39.21, -3.39 -70.79 M75.86 -1.9 C46.64 -27.3, 15.37 -54.69, -3.39 -70.79 M87.9 -2.04 C67.15 -16.87, 48.07 -36.93, 1.1 -77.48 M87.9 -2.04 C62.03 -22.34, 36.41 -44.58, 1.1 -77.48 M100.69 -1.51 C64.32 -31.98, 32.04 -61.85, 5.6 -84.18 M100.69 -1.51 C82.04 -18.12, 62.64 -34.53, 5.6 -84.18 M112.73 -1.65 C88.43 -23.09, 67.31 -41.5, 10.85 -90.21 M112.73 -1.65 C75.86 -33.87, 40.46 -65.63, 10.85 -90.21 M125.53 -1.12 C85.49 -35.63, 47.35 -66.17, 16.1 -96.25 M125.53 -1.12 C85.1 -37.43, 45.04 -72.37, 16.1 -96.25 M137.57 -1.26 C95.54 -35.34, 54.89 -73.02, 21.34 -102.29 M137.57 -1.26 C102.55 -30.03, 66.99 -62.37, 21.34 -102.29 M149.61 -1.39 C111.01 -31.46, 75.53 -63, 26.59 -108.33 M149.61 -1.39 C106.5 -39.64, 61.25 -78.15, 26.59 -108.33 M162.41 -0.87 C133.03 -23.49, 107.88 -49.41, 31.84 -114.37 M162.41 -0.87 C119.49 -36.57, 77.57 -73.56, 31.84 -114.37 M170.67 -4.28 C141.36 -31.3, 110.27 -55.67, 37.84 -119.75 M170.67 -4.28 C135.05 -33.29, 101.52 -63.47, 37.84 -119.75 M182.71 -4.41 C145.14 -38.28, 102.78 -72.84, 43.85 -125.13 M182.71 -4.41 C133.26 -45.35, 86.26 -86.98, 43.85 -125.13 M194 -5.2 C150.28 -41.48, 105.11 -80.44, 49.85 -130.51 M194 -5.2 C138.21 -54.02, 83.88 -100.95, 49.85 -130.51 M206.04 -5.34 C163.43 -39.51, 123.58 -74.18, 56.61 -135.24 M206.04 -5.34 C173.97 -32.86, 144.25 -59.11, 56.61 -135.24 M218.08 -5.47 C183.79 -33.01, 150.58 -62.16, 64.88 -138.65 M218.08 -5.47 C184.04 -35.4, 150.13 -66.46, 64.88 -138.65 M233.9 -2.32 C185.23 -46.24, 134.14 -90.19, 72.39 -142.72 M233.9 -2.32 C195.45 -36.13, 158.01 -69.86, 72.39 -142.72 M245.18 -3.11 C210.37 -32.43, 172.25 -66.56, 82.16 -144.82 M245.18 -3.11 C194.54 -47.31, 141.9 -91.96, 82.16 -144.82 M255.71 -4.56 C192.75 -60.9, 125.64 -117.74, 90.43 -148.23 M255.71 -4.56 C207.65 -47.87, 161.02 -88.1, 90.43 -148.23 M265.49 -6.66 C220.81 -45.11, 176.65 -84.51, 100.96 -149.68 M265.49 -6.66 C203.74 -61.53, 139.79 -116.4, 100.96 -149.68 M273 -10.73 C216.62 -59.68, 163.85 -107.66, 111.49 -151.12 M273 -10.73 C220.91 -57.01, 170.46 -102.16, 111.49 -151.12 M280.52 -14.8 C230.51 -61.05, 181.87 -102.3, 122.03 -152.57 M280.52 -14.8 C221.66 -64.5, 164.1 -114.82, 122.03 -152.57 M281.99 -24.11 C252.1 -51.46, 218.53 -77.28, 134.82 -152.05 M281.99 -24.11 C222.24 -74.26, 165.36 -124.57, 134.82 -152.05 M276.67 -39.34 C226.06 -83.76, 178.22 -127.58, 149.13 -150.21 M276.67 -39.34 C224.59 -83.49, 174.66 -128.17, 149.13 -150.21 M270.6 -55.22 C236.27 -85.38, 202 -117.07, 166.45 -145.75 M270.6 -55.22 C240.4 -82.12, 208.78 -109.84, 166.45 -145.75 M270.57 -65.85 C242.3 -91.29, 215.21 -115.54, 183.77 -141.29 M270.57 -65.85 C249.21 -86.38, 227.04 -105.2, 183.77 -141.29 M251.66 -92.88 C241.32 -100.76, 232.91 -110.03, 210.91 -128.3 M251.66 -92.88 C238.36 -103.56, 227.29 -114.04, 210.91 -128.3" stroke="#1e1e1e" stroke-width="1" fill="none"></path><path d="M-0.51 0.82 C41.75 0.39, 209.33 4.31, 254.62 -3.66 C299.91 -11.64, 273.76 -31.02, 271.23 -47.04 C268.69 -63.06, 249.85 -86.48, 239.43 -99.79 C229 -113.1, 220.14 -119.94, 208.67 -126.88 C197.21 -133.82, 185.37 -137.65, 170.66 -141.41 C155.94 -145.17, 139.29 -150.78, 120.37 -149.47 C101.44 -148.16, 76.29 -144.53, 57.1 -133.55 C37.91 -122.56, 18.94 -99.48, 5.22 -83.56 C-8.5 -67.63, -20.13 -50.97, -25.21 -37.99 C-30.29 -25, -29.39 -11.83, -25.27 -5.65 C-21.16 0.53, -4.75 -1.66, -0.53 -0.92 M1.42 0.2 C43.4 0.02, 208.64 5.72, 253.48 -2.44 C298.31 -10.61, 272.75 -32.79, 270.45 -48.81 C268.14 -64.82, 249.68 -85.63, 239.66 -98.51 C229.63 -111.4, 221.56 -118.84, 210.27 -126.1 C198.98 -133.35, 187.32 -137.97, 171.92 -142.06 C156.51 -146.15, 137.12 -152.09, 117.87 -150.64 C98.61 -149.2, 74.86 -144.38, 56.38 -133.39 C37.9 -122.39, 20.56 -100.52, 6.98 -84.67 C-6.59 -68.83, -19.78 -51.63, -25.07 -38.32 C-30.36 -25.02, -29.17 -10.9, -24.75 -4.82 C-20.33 1.27, -2.74 -2.79, 1.44 -1.82" stroke="#1e1e1e" stroke-width="2" fill="none"></path></g></g><mask></mask><g stroke-linecap="round"><g transform="translate(147.20024501566309 258.62781347006484) rotate(0 18.51860863611887 3.674329718957125)"><path d="M-0.23 0.07 C3.35 1.52, 15.78 9.01, 21.94 8.75 C28.09 8.49, 34.2 0.22, 36.71 -1.49 M0.65 -0.37 C4.16 0.92, 15.55 8.01, 21.75 7.9 C27.95 7.79, 35.3 0.46, 37.85 -1.05" stroke="#1e1e1e" stroke-width="2" fill="none"></path></g></g><mask></mask></svg>