<svg version="1.1" xmlns="http://www.w3.org/2000/svg" viewBox="0 0 218.52413316705633 218.52413316705633" width="218.52413316705633" height="218.52413316705633">
  <!-- svg-source:excalidraw -->
  
  <defs>
    <style class="style-fonts">
      
    </style>
    
  </defs>
  <g stroke-linecap="round" transform="translate(10 10) rotate(0 99.26206658352817 99.26206658352817)"><path d="M7.86 8.16 C7.86 8.16, 7.86 8.16, 7.86 8.16 M7.86 8.16 C7.86 8.16, 7.86 8.16, 7.86 8.16 M2.75 26.24 C9.01 18.43, 14.82 9.96, 21.12 5.11 M2.75 26.24 C9.13 19.63, 13.6 13.64, 21.12 5.11 M2.88 38.28 C10.82 28.82, 15.12 22.14, 34.37 2.05 M2.88 38.28 C12.18 27.46, 23.55 15.31, 34.37 2.05 M2.36 51.07 C19.54 31.29, 37.05 13.96, 45 2.02 M2.36 51.07 C16.06 34.17, 31.02 19.06, 45 2.02 M2.49 63.11 C18.42 46.12, 32.3 26.66, 55.63 1.98 M2.49 63.11 C14.26 48.74, 27.96 35.85, 55.63 1.98 M2.62 75.16 C14.42 60.11, 30.51 42.96, 66.26 1.95 M2.62 75.16 C19.1 55.79, 37.46 35.9, 66.26 1.95 M2.1 87.95 C22.86 65.18, 41.06 45.79, 76.89 1.91 M2.1 87.95 C30.89 55.06, 58.23 24, 76.89 1.91 M2.23 99.99 C29.27 69.1, 61.12 35.63, 87.52 1.88 M2.23 99.99 C35.66 63.24, 66.95 26.72, 87.52 1.88 M2.37 112.03 C35.46 72.16, 73.53 31.5, 98.15 1.85 M2.37 112.03 C38.35 67.68, 75.8 26.25, 98.15 1.85 M2.5 124.07 C41.35 77.78, 80.72 33.75, 108.78 1.81 M2.5 124.07 C34.97 88.26, 64.07 53.57, 108.78 1.81 M1.98 136.87 C40.41 94, 76.09 49.91, 119.41 1.78 M1.98 136.87 C40.32 91.89, 78.63 49.04, 119.41 1.78 M2.11 148.91 C35.76 111.77, 66.19 70.95, 130.04 1.74 M2.11 148.91 C46.52 96.81, 91.55 45.43, 130.04 1.74 M2.24 160.95 C37.19 122.61, 70.07 84.08, 140.67 1.71 M2.24 160.95 C39.58 116.95, 80.61 70.34, 140.67 1.71 M4.34 170.73 C34.92 134.46, 63.88 100.74, 150.65 2.43 M4.34 170.73 C44.3 123.81, 86.13 76.92, 150.65 2.43 M4.48 182.77 C39.01 141.89, 74.21 103.19, 161.28 2.39 M4.48 182.77 C38.04 144.9, 72.14 104.49, 161.28 2.39 M7.89 191.04 C67.37 125.69, 124.21 58.69, 170.59 3.87 M7.89 191.04 C59.42 135.09, 108.87 77.16, 170.59 3.87 M15.24 194.78 C77.95 122.29, 140.97 48.94, 181.88 3.08 M15.24 194.78 C67.4 135.2, 119.34 76.38, 181.88 3.08 M21.28 200.02 C81.22 129.98, 143.09 58.77, 188.57 7.57 M21.28 200.02 C55.28 161.41, 89.32 122.27, 188.57 7.57 M32.56 199.23 C71.94 153.12, 109.16 109.57, 195.27 12.07 M32.56 199.23 C93.92 127.85, 157.16 57.73, 195.27 12.07 M43.19 199.2 C101.04 127.26, 162.21 58.56, 198.68 20.33 M43.19 199.2 C88.88 144.62, 134.53 92.29, 198.68 20.33 M53.82 199.17 C105.98 138.47, 155.48 82.37, 198.81 32.37 M53.82 199.17 C96.81 148.68, 139.6 98.98, 198.81 32.37 M64.45 199.13 C101.35 153.53, 140.38 110.21, 198.95 44.42 M64.45 199.13 C98.42 158.78, 132.12 120.9, 198.95 44.42 M75.08 199.1 C108.84 160.53, 138.77 123.54, 199.08 56.46 M75.08 199.1 C120.55 146.59, 167.66 94.65, 199.08 56.46 M85.71 199.06 C115.43 163.72, 144.07 132, 198.56 69.25 M85.71 199.06 C116.71 165.13, 144.66 131.95, 198.56 69.25 M96.34 199.03 C127.68 162.62, 162.65 125.28, 198.69 81.29 M96.34 199.03 C130.61 159.5, 164.87 119.78, 198.69 81.29 M106.97 198.99 C139.99 160.94, 171.63 121.92, 198.82 93.33 M106.97 198.99 C131.9 169.79, 158.2 139.95, 198.82 93.33 M117.61 198.96 C141.84 174.67, 165.83 144.05, 198.96 105.37 M117.61 198.96 C135.37 180.35, 150.7 162.54, 198.96 105.37 M128.24 198.92 C143.19 182.1, 156.07 163.45, 199.09 117.42 M128.24 198.92 C154.41 169.03, 180.63 138.22, 199.09 117.42 M138.87 198.89 C160.87 174.56, 183.14 151.66, 198.57 130.21 M138.87 198.89 C161.41 172.27, 184.45 147.71, 198.57 130.21 M149.5 198.85 C165.02 182.69, 179.53 165.21, 198.7 142.25 M149.5 198.85 C167.25 177.91, 187.39 154.83, 198.7 142.25 M160.13 198.82 C173.09 185.31, 184.92 172.65, 198.83 154.29 M160.13 198.82 C174.3 183.58, 186.68 167.97, 198.83 154.29 M168.79 201.05 C177.54 193.69, 183.2 182.41, 198.97 166.33 M168.79 201.05 C176.05 192.35, 183.74 182.42, 198.97 166.33 M182.04 198 C187.99 194.07, 192.69 186.14, 197.13 180.64 M182.04 198 C186.21 194.74, 188.65 191.67, 197.13 180.64 M7.98 190.5 C7.98 190.5, 7.98 190.5, 7.98 190.5 M7.98 190.5 C7.98 190.5, 7.98 190.5, 7.98 190.5 M27.56 196.93 C17.01 187, 9.72 181.02, 1.15 173.97 M27.56 196.93 C21.84 191.6, 16 187.98, 1.15 173.97 M41.11 198.11 C27.29 186.47, 12.34 169.46, 0.36 162.68 M41.11 198.11 C29.09 187.58, 15 177.24, 0.36 162.68 M53.15 197.98 C39.99 187.18, 22.62 171.59, 0.32 152.05 M53.15 197.98 C39.01 185.27, 23.08 172.13, 0.32 152.05 M65.95 198.5 C48.97 184.19, 31.25 167.51, 0.29 141.42 M65.95 198.5 C39.8 175.53, 15.26 153.63, 0.29 141.42 M77.99 198.37 C56.28 178.84, 30.28 157.76, 0.26 130.79 M77.99 198.37 C56.63 180.89, 37.21 161.45, 0.26 130.79 M90.03 198.23 C71.54 181.99, 52.38 167.02, 0.22 120.16 M90.03 198.23 C66.05 178.88, 41.66 157.31, 0.22 120.16 M102.07 198.1 C80.44 178.93, 56.58 159.22, 0.19 109.53 M102.07 198.1 C78.53 175.79, 54.26 156.34, 0.19 109.53 M114.87 198.62 C80.15 166.89, 42.36 136.22, 0.15 98.9 M114.87 198.62 C77.42 166.48, 42.13 135.29, 0.15 98.9 M126.91 198.49 C81.17 159.92, 37.14 119.06, 0.12 88.27 M126.91 198.49 C93.97 170.88, 60.9 141.15, 0.12 88.27 M138.95 198.36 C85.57 152.3, 32.45 103.85, 0.08 77.64 M138.95 198.36 C101.74 165.85, 66.29 135.07, 0.08 77.64 M150.99 198.22 C92.67 149.8, 34.87 96.87, 0.8 67.67 M150.99 198.22 C115.43 168.37, 80.65 138.16, 0.8 67.67 M163.03 198.09 C125.87 165.89, 89.29 131.52, 0.77 57.04 M163.03 198.09 C113.92 157.91, 67.06 115.24, 0.77 57.04 M174.32 197.3 C114.58 144.96, 54.68 92.98, 0.73 46.41 M174.32 197.3 C132.41 162.26, 92.73 127.64, 0.73 46.41 M183.34 194.54 C125.23 144.6, 66.41 91.18, 0.7 35.78 M183.34 194.54 C119.1 138.61, 54.4 82.4, 0.7 35.78 M190.85 190.47 C119.86 128.4, 46.54 65.44, 0.67 25.15 M190.85 190.47 C121.89 128.35, 50.46 68.47, 0.67 25.15 M194.59 183.12 C123.46 122.79, 55.87 64.05, 2.9 16.48 M194.59 183.12 C145.8 140.18, 96.12 98.03, 2.9 16.48 M197.58 175.12 C123.82 113.25, 47.95 46.7, 7.39 9.79 M197.58 175.12 C131.23 117.31, 65.28 60.47, 7.39 9.79 M199.05 165.8 C146.76 118.57, 93.87 74.16, 13.39 4.41 M199.05 165.8 C133.29 108.09, 68.8 51.49, 13.39 4.41 M199.02 155.17 C161 121.92, 124.05 88.69, 21.66 1 M199.02 155.17 C149.8 113.28, 99.4 69.21, 21.66 1 M198.98 144.54 C153.05 102.17, 102.35 61.69, 32.19 -0.45 M198.98 144.54 C152.41 103.88, 105.03 64.12, 32.19 -0.45 M198.95 133.91 C162.59 105.39, 128.72 73.8, 44.23 -0.58 M198.95 133.91 C150.99 92.94, 103.45 50.89, 44.23 -0.58 M198.91 123.28 C144.38 76, 91.12 27.06, 57.03 -0.06 M198.91 123.28 C169.17 97.94, 140.69 72, 57.03 -0.06 M198.88 112.65 C151.78 70.39, 105.43 29.21, 69.07 -0.19 M198.88 112.65 C153.42 72.67, 104.91 32.08, 69.07 -0.19 M198.84 102.02 C167.87 73.97, 137.92 48.63, 81.11 -0.33 M198.84 102.02 C152.36 61.74, 105.32 20.91, 81.11 -0.33 M198.81 91.39 C170.14 67.16, 140.28 39.86, 93.15 -0.46 M198.81 91.39 C156.44 54.98, 115.57 20, 93.15 -0.46 M198.77 80.76 C161.7 46.98, 123.02 17.59, 105.19 -0.59 M198.77 80.76 C177.89 63.13, 157.75 45.57, 105.19 -0.59 M198.74 70.13 C168.2 44.03, 139.21 18.73, 117.99 -0.07 M198.74 70.13 C169.08 45.68, 141.64 20.17, 117.99 -0.07 M199.46 60.16 C174.92 39.34, 151.29 16.56, 130.03 -0.2 M199.46 60.16 C172.87 37.44, 147.74 15.52, 130.03 -0.2 M199.43 49.53 C178.04 29.12, 154.81 14.12, 142.07 -0.34 M199.43 49.53 C187.39 38.28, 175.32 27.64, 142.07 -0.34 M199.39 38.9 C182.78 24.19, 171.07 11.79, 154.11 -0.47 M199.39 38.9 C187.51 28.24, 175.94 20.03, 154.11 -0.47 M197.85 26.95 C187.3 16.23, 171.61 4.78, 166.9 0.05 M197.85 26.95 C187.58 16.8, 175.45 8.37, 166.9 0.05 M193.28 12.39 C189.96 8.65, 186.45 6.41, 181.21 1.89 M193.28 12.39 C189.33 8.42, 184.77 4.39, 181.21 1.89" stroke="#1e1e1e" stroke-width="1" fill="none"></path><path d="M32 0 C72.49 -1.48, 111.61 0.1, 166.52 0 M32 0 C76.53 -0.67, 119.91 0, 166.52 0 M166.52 0 C187.23 0.83, 197.56 11.33, 198.52 32 M166.52 0 C186.01 0.99, 198.05 12.77, 198.52 32 M198.52 32 C197.51 76.25, 197.84 124.49, 198.52 166.52 M198.52 32 C197.81 68.75, 198.42 104.89, 198.52 166.52 M198.52 166.52 C199.45 186.73, 186.52 197.21, 166.52 198.52 M198.52 166.52 C196.47 188.63, 188.88 199.09, 166.52 198.52 M166.52 198.52 C137.87 197.01, 110.37 196.49, 32 198.52 M166.52 198.52 C121.42 200.18, 75.17 199.62, 32 198.52 M32 198.52 C10.65 198.52, 0.75 185.91, 0 166.52 M32 198.52 C12.19 199.7, 1.84 186.06, 0 166.52 M0 166.52 C2.14 112.55, 0.24 63.92, 0 32 M0 166.52 C-0.56 122.96, 0.99 79.03, 0 32 M0 32 C-1.94 11.5, 9.93 1.9, 32 0 M0 32 C-0.8 11.12, 10.66 -1.89, 32 0" stroke="#1e1e1e" stroke-width="2" fill="none"></path></g></svg>