<svg version="1.1" xmlns="http://www.w3.org/2000/svg" viewBox="0 0 143.463845128642 220.4758150336174" width="143.463845128642" height="220.4758150336174">
  <!-- svg-source:excalidraw -->
  
  <defs>
    <style class="style-fonts">
      
    </style>
    
  </defs>
  <g stroke-linecap="round"><g transform="translate(82.99919811897371 102.40797668302119) rotate(0 -10.348594184955573 7.486196415758215)" fill-rule="evenodd"><path d="M-0.05 0.91 C0.09 14.89, -2.58 68.4, -0.97 85.9 C0.65 103.4, 4.74 102.8, 9.64 105.91 C14.55 109.02, 23.82 106.22, 28.46 104.57 C33.09 102.91, 35.55 103.12, 37.45 95.98 C39.35 88.84, 38.77 78.45, 39.84 61.73 C40.91 45.01, 42.71 17.61, 43.86 -4.34 C45.01 -26.28, 46.09 -56.25, 46.75 -69.93 C47.41 -83.62, 56.12 -82.73, 47.81 -86.46 C39.5 -90.19, 12.04 -91.08, -3.12 -92.32 C-18.29 -93.56, -32.96 -95.05, -43.2 -93.89 C-53.45 -92.72, -60.34 -89.8, -64.59 -85.32 C-68.85 -80.84, -75.97 -69.11, -68.75 -67 C-61.53 -64.9, -33.97 -72.41, -21.29 -72.7 C-8.6 -73, 1.55 -72.59, 7.37 -68.76 C13.2 -64.92, 19.82 -53.39, 13.67 -49.7 C7.52 -46, -16.3 -46.03, -29.54 -46.58 C-42.78 -47.13, -59.27 -55.86, -65.76 -53.01 C-72.25 -50.16, -72.72 -34.7, -68.48 -29.48 C-64.24 -24.26, -52.11 -22.36, -40.32 -21.7 C-28.53 -21.05, -4.62 -28.95, 2.27 -25.54 C9.15 -22.14, 1.73 -5.36, 0.99 -1.27" stroke="none" stroke-width="0" fill="#d2bab0" fill-rule="evenodd"></path><path d="M0.4 -0.54 C0.21 13.51, -3.34 67.65, -1.92 85.23 C-0.49 102.8, 3.99 101.47, 8.94 104.92 C13.89 108.36, 22.64 107, 27.8 105.9 C32.96 104.81, 37.37 105.49, 39.9 98.34 C42.43 91.2, 42.44 80.32, 42.97 63.04 C43.5 45.76, 42.12 16.61, 43.05 -5.33 C43.99 -27.27, 48.31 -55.61, 48.59 -68.59 C48.88 -81.58, 53.57 -79.58, 44.77 -83.25 C35.96 -86.92, 10.5 -89.18, -4.24 -90.63 C-18.99 -92.08, -33.25 -93, -43.71 -91.96 C-54.16 -90.92, -62.69 -88.29, -66.97 -84.36 C-71.24 -80.43, -76.78 -70.47, -69.36 -68.38 C-61.94 -66.29, -35.26 -71.57, -22.44 -71.83 C-9.62 -72.08, 1.8 -73.87, 7.55 -69.92 C13.3 -65.98, 17.99 -52.09, 12.06 -48.16 C6.13 -44.24, -14.93 -45.76, -28.03 -46.38 C-41.14 -46.99, -59.71 -54.65, -66.55 -51.86 C-73.4 -49.07, -73.37 -34.45, -69.11 -29.61 C-64.86 -24.77, -52.6 -23.38, -41.02 -22.81 C-29.45 -22.25, -6.5 -30.07, 0.34 -26.19 C7.19 -22.31, -0.04 -4.07, 0.06 0.49 M-0.86 1.79 C-0.61 15.95, -1.34 69.28, 0.25 86.66 C1.84 104.04, 4.15 102.73, 8.71 106.06 C13.27 109.39, 22.56 107.83, 27.61 106.66 C32.66 105.49, 36.78 106.4, 39.03 99.04 C41.28 91.68, 40.4 80.12, 41.09 62.49 C41.78 44.87, 42.13 15.16, 43.18 -6.69 C44.24 -28.55, 46.91 -55.74, 47.42 -68.65 C47.92 -81.56, 54.72 -80.49, 46.21 -84.18 C37.7 -87.87, 11.36 -89.64, -3.62 -90.8 C-18.6 -91.97, -33.45 -92.19, -43.68 -91.17 C-53.9 -90.15, -60.75 -88.38, -64.97 -84.69 C-69.19 -81, -76.02 -71.2, -69.01 -69.04 C-62 -66.89, -35.72 -71.53, -22.91 -71.75 C-10.1 -71.98, 1.94 -74.45, 7.86 -70.37 C13.78 -66.29, 18.73 -51.35, 12.63 -47.26 C6.54 -43.18, -15.88 -44.64, -28.73 -45.86 C-41.58 -47.09, -57.49 -57.28, -64.45 -54.61 C-71.4 -51.94, -74.54 -35.45, -70.48 -29.87 C-66.43 -24.29, -52.3 -21.52, -40.11 -21.12 C-27.93 -20.72, -4.11 -30.9, 2.64 -27.48 C9.38 -24.07, 0.59 -5.33, 0.37 -0.61" stroke="#1e1e1e" stroke-width="2" fill="none"></path></g></g><mask></mask><g stroke-linecap="round"><g transform="translate(81.93442843917921 82.5825881643319) rotate(0 18.90524260483312 29.284248023813106)" fill-rule="evenodd"><path d="M-2.61 -0.14 C5.32 1.21, 37.14 -3.54, 44.16 6.36 C51.19 16.26, 47.19 51.86, 39.54 59.25 C31.89 66.65, 4.68 60.42, -1.74 50.74 C-8.16 41.06, 1.05 9.44, 1.04 1.17" stroke="none" stroke-width="0" fill="#846358" fill-rule="evenodd"></path><path d="M-0.37 -0.09 C6.81 0.91, 35.42 -4.35, 42.22 5.49 C49.01 15.33, 47.97 50.91, 40.4 58.95 C32.82 66.99, 3.54 63.62, -3.24 53.73 C-10.03 43.83, -0.6 8.72, -0.32 -0.4 M-1.47 -1.18 C5.56 -0.48, 34.69 -5.96, 41.5 3.71 C48.32 13.37, 46.77 48.81, 39.42 56.8 C32.07 64.79, 4.19 61.14, -2.62 51.63 C-9.42 42.13, -1.77 8.2, -1.41 -0.22" stroke="#1e1e1e" stroke-width="2" fill="none"></path></g></g><mask></mask></svg>